LekeProposal-Regular.ufo
<glyph name="exclam" format="2">
  <advance width="782"/>
  <unicode hex="0021"/>
  <outline>
    <contour>
      <point x="534" y="123" type="curve" smooth="yes"/>
      <point x="534" y="47"/>
      <point x="469" y="-20"/>
      <point x="391" y="-20" type="curve" smooth="yes"/>
      <point x="312" y="-20"/>
      <point x="250" y="47"/>
      <point x="250" y="123" type="curve" smooth="yes"/>
      <point x="250" y="203"/>
      <point x="312" y="265"/>
      <point x="391" y="265" type="curve" smooth="yes"/>
      <point x="469" y="265"/>
      <point x="534" y="203"/>
    </contour>
    <contour>
      <point x="532" y="1448" type="curve" smooth="yes"/>
      <point x="532" y="1429"/>
      <point x="511" y="1173"/>
      <point x="490" y="923" type="curve" smooth="yes"/>
      <point x="477" y="776"/>
      <point x="464" y="611"/>
      <point x="449" y="427" type="curve"/>
      <point x="336" y="427" type="line"/>
      <point x="320" y="611"/>
      <point x="306" y="776"/>
      <point x="293" y="923" type="curve" smooth="yes"/>
      <point x="272" y="1174"/>
      <point x="250" y="1428"/>
      <point x="250" y="1448" type="curve" smooth="yes"/>
      <point x="250" y="1541"/>
      <point x="294" y="1598"/>
      <point x="391" y="1598" type="curve" smooth="yes"/>
      <point x="488" y="1598"/>
      <point x="532" y="1541"/>
    </contour>
  </outline>
</glyph>
<glyph name="quotedbl" format="2">
  <advance width="771"/>
  <unicode hex="0022"/>
  <outline>
    <contour>
      <point x="218" y="982" type="line"/>
      <point x="181" y="982" type="line"/>
      <point x="99" y="1547" type="line"/>
      <point x="99" y="1619"/>
      <point x="135" y="1660"/>
      <point x="199" y="1660" type="curve" smooth="yes"/>
      <point x="263" y="1660"/>
      <point x="296" y="1619"/>
      <point x="296" y="1547" type="curve"/>
    </contour>
    <contour>
      <point x="590" y="982" type="line"/>
      <point x="553" y="982" type="line"/>
      <point x="475" y="1547" type="line"/>
      <point x="475" y="1619"/>
      <point x="508" y="1660"/>
      <point x="572" y="1660" type="curve" smooth="yes"/>
      <point x="636" y="1660"/>
      <point x="671" y="1619"/>
      <point x="671" y="1547" type="curve"/>
    </contour>
  </outline>
</glyph>
<glyph name="numbersign" format="2">
  <advance width="1720"/>
  <unicode hex="0023"/>
  <outline>
    <contour>
      <point x="750" y="982" type="line"/>
      <point x="636" y="651" type="line"/>
      <point x="972" y="651" type="line"/>
      <point x="1086" y="982" type="line"/>
    </contour>
    <contour>
      <point x="1212" y="982" type="line"/>
      <point x="1104" y="651" type="line"/>
      <point x="1477" y="651" type="line"/>
      <point x="1477" y="536" type="line"/>
      <point x="1062" y="536" type="line"/>
      <point x="868" y="-45" type="line"/>
      <point x="753" y="-8" type="line"/>
      <point x="932" y="536" type="line"/>
      <point x="597" y="536" type="line"/>
      <point x="400" y="-45" type="line"/>
      <point x="287" y="-6" type="line"/>
      <point x="472" y="536" type="line"/>
      <point x="144" y="536" type="line"/>
      <point x="144" y="651" type="line"/>
      <point x="510" y="651" type="line"/>
      <point x="623" y="982" type="line"/>
      <point x="247" y="982" type="line"/>
      <point x="247" y="1101" type="line"/>
      <point x="662" y="1101" type="line"/>
      <point x="848" y="1647" type="line"/>
      <point x="965" y="1609" type="line"/>
      <point x="786" y="1101" type="line"/>
      <point x="1124" y="1101" type="line"/>
      <point x="1307" y="1647" type="line"/>
      <point x="1431" y="1609" type="line"/>
      <point x="1254" y="1101" type="line"/>
      <point x="1579" y="1101" type="line"/>
      <point x="1579" y="982" type="line"/>
    </contour>
  </outline>
</glyph>
<glyph name="dollar" format="2">
  <advance width="1303"/>
  <unicode hex="0024"/>
  <outline>
    <contour>
      <point x="958" y="404" type="curve" smooth="yes"/>
      <point x="958" y="574"/>
      <point x="839" y="636"/>
      <point x="709" y="679" type="curve"/>
      <point x="709" y="131" type="line"/>
      <point x="840" y="153"/>
      <point x="958" y="236"/>
    </contour>
    <contour>
      <point x="605" y="1439" type="line"/>
      <point x="482" y="1410"/>
      <point x="386" y="1329"/>
      <point x="386" y="1174" type="curve" smooth="yes"/>
      <point x="386" y="1025"/>
      <point x="509" y="961"/>
      <point x="605" y="927" type="curve"/>
    </contour>
    <contour>
      <point x="1168" y="448" type="curve" smooth="yes"/>
      <point x="1168" y="163"/>
      <point x="861" y="16"/>
      <point x="709" y="8" type="curve"/>
      <point x="709" y="-230" type="line"/>
      <point x="601" y="-230" type="line"/>
      <point x="601" y="8" type="line"/>
      <point x="485" y="13"/>
      <point x="292" y="22"/>
      <point x="134" y="68" type="curve"/>
      <point x="134" y="461" type="line"/>
      <point x="250" y="461" type="line"/>
      <point x="292" y="202" type="line"/>
      <point x="332" y="151"/>
      <point x="476" y="121"/>
      <point x="601" y="121" type="curve"/>
      <point x="601" y="706" type="line"/>
      <point x="400" y="751"/>
      <point x="172" y="864"/>
      <point x="172" y="1128" type="curve" smooth="yes"/>
      <point x="172" y="1407"/>
      <point x="421" y="1526"/>
      <point x="605" y="1554" type="curve"/>
      <point x="605" y="1728" type="line"/>
      <point x="711" y="1728" type="line"/>
      <point x="711" y="1561" type="line"/>
      <point x="810" y="1561"/>
      <point x="909" y="1547"/>
      <point x="982" y="1534" type="curve"/>
      <point x="1025" y="1525"/>
      <point x="1065" y="1517"/>
      <point x="1104" y="1508" type="curve"/>
      <point x="1104" y="1143" type="line"/>
      <point x="983" y="1143" type="line"/>
      <point x="949" y="1388" type="line"/>
      <point x="913" y="1428"/>
      <point x="834" y="1448"/>
      <point x="711" y="1448" type="curve"/>
      <point x="711" y="896" type="line"/>
      <point x="912" y="835"/>
      <point x="1168" y="766"/>
    </contour>
  </outline>
</glyph>
<glyph name="quotesingle" format="2">
  <advance width="396"/>
  <unicode hex="0027"/>
  <outline>
    <contour>
      <point x="218" y="982" type="line"/>
      <point x="181" y="982" type="line"/>
      <point x="99" y="1547" type="line"/>
      <point x="99" y="1619"/>
      <point x="133" y="1660"/>
      <point x="197" y="1660" type="curve" smooth="yes"/>
      <point x="261" y="1660"/>
      <point x="296" y="1619"/>
      <point x="296" y="1547" type="curve"/>
    </contour>
  </outline>
</glyph>
<glyph name="parenright" format="2">
  <advance width="870"/>
  <unicode hex="0029"/>
  <outline>
    <contour>
      <point x="736" y="675" type="curve" smooth="yes"/>
      <point x="736" y="167"/>
      <point x="562" y="-265"/>
      <point x="79" y="-321" type="curve"/>
      <point x="79" y="-219" type="line"/>
      <point x="405" y="-166"/>
      <point x="519" y="160"/>
      <point x="519" y="675" type="curve" smooth="yes"/>
      <point x="519" y="1188"/>
      <point x="405" y="1512"/>
      <point x="79" y="1565" type="curve"/>
      <point x="79" y="1667" type="line"/>
      <point x="563" y="1614"/>
      <point x="736" y="1178"/>
    </contour>
  </outline>
</glyph>
<glyph name="asterisk" format="2">
  <advance width="1157"/>
  <unicode hex="002A"/>
  <outline>
    <contour>
      <point x="459" y="848" type="line"/>
      <point x="298" y="788" type="line"/>
      <point x="303" y="959" type="line"/>
      <point x="537" y="1147" type="line"/>
      <point x="565" y="1126" type="line"/>
    </contour>
    <contour>
      <point x="528" y="1179" type="line"/>
      <point x="227" y="1196" type="line"/>
      <point x="123" y="1327" type="line"/>
      <point x="287" y="1375" type="line"/>
      <point x="537" y="1211" type="line"/>
    </contour>
    <contour>
      <point x="698" y="848" type="line"/>
      <point x="592" y="1126" type="line"/>
      <point x="620" y="1147" type="line"/>
      <point x="854" y="959" type="line"/>
      <point x="859" y="788" type="line"/>
    </contour>
    <contour>
      <point x="594" y="1234" type="line"/>
      <point x="563" y="1234" type="line"/>
      <point x="484" y="1523" type="line"/>
      <point x="579" y="1665" type="line"/>
      <point x="676" y="1523" type="line"/>
    </contour>
    <contour>
      <point x="930" y="1196" type="line"/>
      <point x="632" y="1179" type="line"/>
      <point x="620" y="1211" type="line"/>
      <point x="870" y="1375" type="line"/>
      <point x="1034" y="1327" type="line"/>
    </contour>
  </outline>
</glyph>
<glyph name="plus" format="2">
  <advance width="2314"/>
  <unicode hex="002B"/>
  <outline>
    <contour>
      <point x="1228" y="631" type="line"/>
      <point x="1228" y="8" type="line"/>
      <point x="1086" y="8" type="line"/>
      <point x="1086" y="631" type="line"/>
      <point x="463" y="631" type="line"/>
      <point x="463" y="774" type="line"/>
      <point x="1086" y="774" type="line"/>
      <point x="1086" y="1397" type="line"/>
      <point x="1228" y="1397" type="line"/>
      <point x="1228" y="774" type="line"/>
      <point x="1851" y="774" type="line"/>
      <point x="1851" y="631" type="line"/>
    </contour>
  </outline>
</glyph>
<glyph name="hyphen" format="2">
  <advance width="740"/>
  <unicode hex="002D"/>
  <outline>
    <contour>
      <point x="102" y="478" type="line"/>
      <point x="102" y="651" type="line"/>
      <point x="638" y="651" type="line"/>
      <point x="638" y="478" type="line"/>
    </contour>
  </outline>
</glyph>
<glyph name="slash" format="2">
  <advance width="1135"/>
  <unicode hex="002F"/>
  <outline>
    <contour>
      <point x="148" y="-207" type="line"/>
      <point x="0" y="-207" type="line"/>
      <point x="985" y="1561" type="line"/>
      <point x="1135" y="1561" type="line"/>
    </contour>
  </outline>
</glyph>
<glyph name="zero" format="2">
  <advance width="1303"/>
  <unicode hex="0030"/>
  <outline>
    <contour>
      <point x="965" y="783" type="curve" smooth="yes"/>
      <point x="965" y="1131"/>
      <point x="896" y="1483"/>
      <point x="650" y="1483" type="curve" smooth="yes"/>
      <point x="404" y="1483"/>
      <point x="336" y="1131"/>
      <point x="336" y="783" type="curve" smooth="yes"/>
      <point x="336" y="436"/>
      <point x="404" y="87"/>
      <point x="650" y="87" type="curve" smooth="yes"/>
      <point x="896" y="87"/>
      <point x="965" y="436"/>
    </contour>
    <contour>
      <point x="1210" y="783" type="curve" smooth="yes"/>
      <point x="1210" y="341"/>
      <point x="1027" y="-29"/>
      <point x="650" y="-29" type="curve" smooth="yes"/>
      <point x="272" y="-29"/>
      <point x="93" y="341"/>
      <point x="93" y="783" type="curve" smooth="yes"/>
      <point x="93" y="1226"/>
      <point x="273" y="1598"/>
      <point x="650" y="1598" type="curve" smooth="yes"/>
      <point x="1028" y="1598"/>
      <point x="1210" y="1226"/>
    </contour>
  </outline>
</glyph>
<glyph name="three" format="2">
  <advance width="1303"/>
  <unicode hex="0033"/>
  <outline>
    <contour>
      <point x="1194" y="450" type="curve" smooth="yes"/>
      <point x="1194" y="169"/>
      <point x="920" y="-29"/>
      <point x="588" y="-29" type="curve" smooth="yes"/>
      <point x="276" y="-29"/>
      <point x="108" y="129"/>
      <point x="108" y="244" type="curve" smooth="yes"/>
      <point x="108" y="307"/>
      <point x="153" y="368"/>
      <point x="245" y="368" type="curve" smooth="yes"/>
      <point x="264" y="368"/>
      <point x="305" y="366"/>
      <point x="324" y="353" type="curve"/>
      <point x="393" y="147" type="line"/>
      <point x="453" y="112"/>
      <point x="521" y="87"/>
      <point x="594" y="87" type="curve" smooth="yes"/>
      <point x="812" y="87"/>
      <point x="956" y="264"/>
      <point x="956" y="450" type="curve" smooth="yes"/>
      <point x="956" y="675"/>
      <point x="762" y="741"/>
      <point x="609" y="741" type="curve" smooth="yes"/>
      <point x="569" y="741"/>
      <point x="534" y="740"/>
      <point x="507" y="737" type="curve" smooth="yes"/>
      <point x="493" y="736"/>
      <point x="480" y="734"/>
      <point x="468" y="732" type="curve"/>
      <point x="468" y="876" type="line"/>
      <point x="472" y="876"/>
      <point x="504" y="874"/>
      <point x="528" y="874" type="curve" smooth="yes"/>
      <point x="722" y="874"/>
      <point x="898" y="964"/>
      <point x="898" y="1167" type="curve" smooth="yes"/>
      <point x="898" y="1362"/>
      <point x="753" y="1470"/>
      <point x="594" y="1470" type="curve" smooth="yes"/>
      <point x="533" y="1470"/>
      <point x="480" y="1454"/>
      <point x="444" y="1437" type="curve"/>
      <point x="422" y="1428"/>
      <point x="403" y="1418"/>
      <point x="386" y="1406" type="curve"/>
      <point x="386" y="1174" type="line"/>
      <point x="378" y="1170"/>
      <point x="339" y="1145"/>
      <point x="283" y="1145" type="curve" smooth="yes"/>
      <point x="227" y="1145"/>
      <point x="148" y="1174"/>
      <point x="148" y="1274" type="curve" smooth="yes"/>
      <point x="148" y="1449"/>
      <point x="382" y="1598"/>
      <point x="660" y="1598" type="curve" smooth="yes"/>
      <point x="926" y="1598"/>
      <point x="1135" y="1441"/>
      <point x="1135" y="1198" type="curve" smooth="yes"/>
      <point x="1135" y="1023"/>
      <point x="1008" y="890"/>
      <point x="777" y="825" type="curve"/>
      <point x="973" y="817"/>
      <point x="1194" y="703"/>
    </contour>
  </outline>
</glyph>
<glyph name="five" format="2">
  <advance width="1303"/>
  <unicode hex="0035"/>
  <outline>
    <contour>
      <point x="1197" y="510" type="curve" smooth="yes"/>
      <point x="1197" y="195"/>
      <point x="968" y="-29"/>
      <point x="544" y="-29" type="curve" smooth="yes"/>
      <point x="303" y="-29"/>
      <point x="104" y="124"/>
      <point x="104" y="244" type="curve" smooth="yes"/>
      <point x="104" y="328"/>
      <point x="165" y="374"/>
      <point x="250" y="374" type="curve" smooth="yes"/>
      <point x="275" y="374"/>
      <point x="303" y="367"/>
      <point x="312" y="364" type="curve"/>
      <point x="400" y="152" type="line"/>
      <point x="437" y="115"/>
      <point x="526" y="85"/>
      <point x="579" y="85" type="curve" smooth="yes"/>
      <point x="822" y="85"/>
      <point x="961" y="290"/>
      <point x="961" y="454" type="curve" smooth="yes"/>
      <point x="961" y="714"/>
      <point x="787" y="836"/>
      <point x="565" y="836" type="curve" smooth="yes"/>
      <point x="488" y="836"/>
      <point x="399" y="816"/>
      <point x="324" y="797" type="curve" smooth="yes"/>
      <point x="281" y="786"/>
      <point x="239" y="773"/>
      <point x="197" y="758" type="curve"/>
      <point x="197" y="1561" type="line"/>
      <point x="1090" y="1561" type="line"/>
      <point x="1090" y="1364" type="line"/>
      <point x="360" y="1364" type="line"/>
      <point x="360" y="924" type="line"/>
      <point x="366" y="924"/>
      <point x="520" y="984"/>
      <point x="673" y="984" type="curve" smooth="yes"/>
      <point x="995" y="984"/>
      <point x="1197" y="809"/>
    </contour>
  </outline>
</glyph>
<glyph name="less" format="2">
  <advance width="2314"/>
  <unicode hex="003C"/>
  <outline>
    <contour>
      <point x="463" y="631" type="line"/>
      <point x="463" y="774" type="line"/>
      <point x="1851" y="1306" type="line"/>
      <point x="1851" y="1163" type="line"/>
      <point x="611" y="702" type="line"/>
      <point x="1851" y="242" type="line"/>
      <point x="1851" y="98" type="line"/>
    </contour>
  </outline>
</glyph>
<glyph name="equal" format="2">
  <advance width="2314"/>
  <unicode hex="003D"/>
  <outline>
    <contour>
      <point x="463" y="420" type="line"/>
      <point x="463" y="564" type="line"/>
      <point x="1851" y="564" type="line"/>
      <point x="1851" y="420" type="line"/>
    </contour>
    <contour>
      <point x="463" y="841" type="line"/>
      <point x="463" y="984" type="line"/>
      <point x="1851" y="984" type="line"/>
      <point x="1851" y="841" type="line"/>
    </contour>
  </outline>
</glyph>
<glyph name="greater" format="2">
  <advance width="2314"/>
  <unicode hex="003E"/>
  <outline>
    <contour>
      <point x="463" y="98" type="line"/>
      <point x="463" y="242" type="line"/>
      <point x="1703" y="702" type="line"/>
      <point x="463" y="1163" type="line"/>
      <point x="463" y="1306" type="line"/>
      <point x="1851" y="774" type="line"/>
      <point x="1851" y="631" type="line"/>
    </contour>
  </outline>
</glyph>
<glyph name="question" format="2">
  <advance width="1124"/>
  <unicode hex="003F"/>
  <outline>
    <contour>
      <point x="607" y="121" type="curve" smooth="yes"/>
      <point x="607" y="44"/>
      <point x="542" y="-20"/>
      <point x="463" y="-20" type="curve" smooth="yes"/>
      <point x="385" y="-20"/>
      <point x="322" y="45"/>
      <point x="322" y="123" type="curve" smooth="yes"/>
      <point x="322" y="203"/>
      <point x="385" y="265"/>
      <point x="463" y="265" type="curve" smooth="yes"/>
      <point x="544" y="265"/>
      <point x="607" y="198"/>
    </contour>
    <contour>
      <point x="965" y="1183" type="curve" smooth="yes"/>
      <point x="965" y="890"/>
      <point x="704" y="761"/>
      <point x="525" y="681" type="curve"/>
      <point x="525" y="425" type="line"/>
      <point x="396" y="425" type="line"/>
      <point x="396" y="761" type="line"/>
      <point x="540" y="809"/>
      <point x="731" y="936"/>
      <point x="731" y="1165" type="curve" smooth="yes"/>
      <point x="731" y="1381"/>
      <point x="612" y="1485"/>
      <point x="400" y="1485" type="curve"/>
      <point x="305" y="1249" type="line"/>
      <point x="298" y="1248"/>
      <point x="292" y="1248"/>
      <point x="287" y="1248" type="curve"/>
      <point x="278" y="1245"/>
      <point x="270" y="1246"/>
      <point x="267" y="1246" type="curve" smooth="yes"/>
      <point x="183" y="1246"/>
      <point x="115" y="1283"/>
      <point x="115" y="1371" type="curve" smooth="yes"/>
      <point x="115" y="1479"/>
      <point x="232" y="1598"/>
      <point x="484" y="1598" type="curve" smooth="yes"/>
      <point x="758" y="1598"/>
      <point x="965" y="1437"/>
    </contour>
  </outline>
</glyph>
<glyph name="at" format="2">
  <advance width="2166"/>
  <unicode hex="0040"/>
  <outline>
    <contour>
      <point x="1351" y="918" type="line"/>
      <point x="1362" y="957"/>
      <point x="1298" y="1050"/>
      <point x="1215" y="1050" type="curve" smooth="yes"/>
      <point x="986" y="1050"/>
      <point x="842" y="822"/>
      <point x="842" y="538" type="curve" smooth="yes"/>
      <point x="842" y="371"/>
      <point x="907" y="288"/>
      <point x="1023" y="288" type="curve" smooth="yes"/>
      <point x="1124" y="288"/>
      <point x="1212" y="379"/>
      <point x="1259" y="439" type="curve"/>
    </contour>
    <contour>
      <point x="1999" y="871" type="curve" smooth="yes"/>
      <point x="1999" y="402"/>
      <point x="1667" y="138"/>
      <point x="1435" y="138" type="curve" smooth="yes"/>
      <point x="1307" y="138"/>
      <point x="1254" y="202"/>
      <point x="1254" y="330" type="curve"/>
      <point x="1134" y="209"/>
      <point x="1027" y="140"/>
      <point x="919" y="140" type="curve" smooth="yes"/>
      <point x="749" y="140"/>
      <point x="629" y="287"/>
      <point x="629" y="518" type="curve" smooth="yes"/>
      <point x="629" y="871"/>
      <point x="915" y="1147"/>
      <point x="1206" y="1147" type="curve" smooth="yes"/>
      <point x="1274" y="1147"/>
      <point x="1363" y="1119"/>
      <point x="1433" y="1084" type="curve"/>
      <point x="1475" y="1137" type="line"/>
      <point x="1603" y="1137" type="line"/>
      <point x="1597" y="1118"/>
      <point x="1559" y="947"/>
      <point x="1521" y="780" type="curve" smooth="yes"/>
      <point x="1498" y="682"/>
      <point x="1473" y="572"/>
      <point x="1446" y="450" type="curve"/>
      <point x="1420" y="344"/>
      <point x="1445" y="269"/>
      <point x="1532" y="269" type="curve" smooth="yes"/>
      <point x="1669" y="269"/>
      <point x="1886" y="501"/>
      <point x="1886" y="869" type="curve" smooth="yes"/>
      <point x="1886" y="1303"/>
      <point x="1564" y="1505"/>
      <point x="1238" y="1505" type="curve" smooth="yes"/>
      <point x="711" y="1505"/>
      <point x="336" y="1119"/>
      <point x="336" y="602" type="curve" smooth="yes"/>
      <point x="336" y="131"/>
      <point x="634" y="-230"/>
      <point x="1146" y="-230" type="curve" smooth="yes"/>
      <point x="1418" y="-230"/>
      <point x="1614" y="-137"/>
      <point x="1756" y="-59" type="curve"/>
      <point x="1789" y="-142" type="line"/>
      <point x="1581" y="-254"/>
      <point x="1357" y="-346"/>
      <point x="1090" y="-346" type="curve" smooth="yes"/>
      <point x="594" y="-346"/>
      <point x="170" y="-2"/>
      <point x="170" y="561" type="curve" smooth="yes"/>
      <point x="170" y="1246"/>
      <point x="692" y="1607"/>
      <point x="1208" y="1607" type="curve" smooth="yes"/>
      <point x="1666" y="1607"/>
      <point x="1999" y="1347"/>
    </contour>
  </outline>
</glyph>
<glyph name="D" format="2">
  <advance width="1610"/>
  <unicode hex="0044"/>
  <outline>
    <contour>
      <point x="1259" y="783" type="curve" smooth="yes"/>
      <point x="1259" y="1269"/>
      <point x="1023" y="1450"/>
      <point x="658" y="1450" type="curve" smooth="yes"/>
      <point x="481" y="1450" type="line"/>
      <point x="481" y="119" type="line"/>
      <point x="669" y="121" type="line" smooth="yes"/>
      <point x="1024" y="124"/>
      <point x="1259" y="308"/>
    </contour>
    <contour>
      <point x="1521" y="788" type="curve" smooth="yes"/>
      <point x="1521" y="383"/>
      <point x="1299" y="8"/>
      <point x="718" y="8" type="curve" smooth="yes"/>
      <point x="75" y="8" type="line"/>
      <point x="75" y="107" type="line"/>
      <point x="197" y="116" type="line"/>
      <point x="229" y="120"/>
      <point x="247" y="144"/>
      <point x="247" y="167" type="curve" smooth="yes"/>
      <point x="247" y="1401" type="line" smooth="yes"/>
      <point x="247" y="1424"/>
      <point x="229" y="1449"/>
      <point x="197" y="1452" type="curve" smooth="yes"/>
      <point x="75" y="1461" type="line"/>
      <point x="75" y="1561" type="line"/>
      <point x="671" y="1561" type="line" smooth="yes"/>
      <point x="1157" y="1561"/>
      <point x="1521" y="1320"/>
    </contour>
  </outline>
</glyph>
<glyph name="E" format="2">
  <advance width="1349"/>
  <unicode hex="0045"/>
  <outline>
    <contour>
      <point x="75" y="8" type="line"/>
      <point x="75" y="107" type="line"/>
      <point x="194" y="116" type="line"/>
      <point x="227" y="120"/>
      <point x="245" y="144"/>
      <point x="245" y="167" type="curve" smooth="yes"/>
      <point x="245" y="1401" type="line" smooth="yes"/>
      <point x="245" y="1424"/>
      <point x="227" y="1449"/>
      <point x="194" y="1452" type="curve" smooth="yes"/>
      <point x="75" y="1461" type="line"/>
      <point x="75" y="1561" type="line"/>
      <point x="1199" y="1561" type="line"/>
      <point x="1199" y="1216" type="line"/>
      <point x="1060" y="1216" type="line"/>
      <point x="1025" y="1406" type="line"/>
      <point x="1022" y="1429"/>
      <point x="1004" y="1450"/>
      <point x="983" y="1450" type="curve" smooth="yes"/>
      <point x="481" y="1450" type="line"/>
      <point x="481" y="874" type="line"/>
      <point x="828" y="874" type="line" smooth="yes"/>
      <point x="849" y="874"/>
      <point x="870" y="897"/>
      <point x="870" y="913" type="curve"/>
      <point x="894" y="1072" type="line"/>
      <point x="1011" y="1072" type="line"/>
      <point x="1011" y="556" type="line"/>
      <point x="894" y="556" type="line"/>
      <point x="870" y="717" type="line"/>
      <point x="870" y="733"/>
      <point x="848" y="758"/>
      <point x="828" y="758" type="curve" smooth="yes"/>
      <point x="481" y="758" type="line"/>
      <point x="481" y="121" type="line"/>
      <point x="1067" y="121" type="line" smooth="yes"/>
      <point x="1086" y="121"/>
      <point x="1105" y="149"/>
      <point x="1109" y="165" type="curve"/>
      <point x="1150" y="394" type="line"/>
      <point x="1275" y="394" type="line"/>
      <point x="1275" y="8" type="line"/>
    </contour>
  </outline>
</glyph>
<glyph name="G" format="2">
  <advance width="1608"/>
  <unicode hex="0047"/>
  <outline>
    <contour>
      <point x="1433" y="646" type="line" smooth="yes"/>
      <point x="1400" y="643"/>
      <point x="1384" y="622"/>
      <point x="1384" y="598" type="curve" smooth="yes"/>
      <point x="1384" y="63" type="line"/>
      <point x="1337" y="46"/>
      <point x="1288" y="30"/>
      <point x="1235" y="17" type="curve" smooth="yes"/>
      <point x="1144" y="-7"/>
      <point x="1023" y="-29"/>
      <point x="898" y="-29" type="curve" smooth="yes"/>
      <point x="383" y="-29"/>
      <point x="90" y="358"/>
      <point x="90" y="788" type="curve" smooth="yes"/>
      <point x="90" y="1274"/>
      <point x="409" y="1598"/>
      <point x="928" y="1598" type="curve" smooth="yes"/>
      <point x="1103" y="1598"/>
      <point x="1240" y="1554"/>
      <point x="1382" y="1519" type="curve"/>
      <point x="1382" y="1145" type="line"/>
      <point x="1243" y="1145" type="line"/>
      <point x="1206" y="1353" type="line" smooth="yes"/>
      <point x="1201" y="1380"/>
      <point x="1180" y="1399"/>
      <point x="1159" y="1408" type="curve" smooth="yes"/>
      <point x="1115" y="1426"/>
      <point x="1028" y="1468"/>
      <point x="919" y="1468" type="curve" smooth="yes"/>
      <point x="583" y="1468"/>
      <point x="354" y="1230"/>
      <point x="354" y="799" type="curve" smooth="yes"/>
      <point x="354" y="355"/>
      <point x="584" y="101"/>
      <point x="947" y="101" type="curve" smooth="yes"/>
      <point x="1048" y="101"/>
      <point x="1139" y="136"/>
      <point x="1150" y="136" type="curve"/>
      <point x="1150" y="598" type="line" smooth="yes"/>
      <point x="1150" y="622"/>
      <point x="1135" y="643"/>
      <point x="1102" y="646" type="curve" smooth="yes"/>
      <point x="947" y="658" type="line"/>
      <point x="947" y="758" type="line"/>
      <point x="1550" y="758" type="line"/>
      <point x="1550" y="658" type="line"/>
    </contour>
  </outline>
</glyph>
<glyph name="H" format="2">
  <advance width="1720"/>
  <unicode hex="0048"/>
  <outline>
    <contour>
      <point x="1060" y="8" type="line"/>
      <point x="1060" y="107" type="line"/>
      <point x="1192" y="116" type="line"/>
      <point x="1224" y="120"/>
      <point x="1241" y="144"/>
      <point x="1241" y="167" type="curve" smooth="yes"/>
      <point x="1241" y="765" type="line"/>
      <point x="479" y="765" type="line"/>
      <point x="479" y="167" type="line" smooth="yes"/>
      <point x="479" y="144"/>
      <point x="495" y="120"/>
      <point x="528" y="116" type="curve"/>
      <point x="660" y="107" type="line"/>
      <point x="660" y="8" type="line"/>
      <point x="75" y="8" type="line"/>
      <point x="75" y="107" type="line"/>
      <point x="194" y="116" type="line"/>
      <point x="227" y="120"/>
      <point x="245" y="144"/>
      <point x="245" y="167" type="curve" smooth="yes"/>
      <point x="245" y="1401" type="line" smooth="yes"/>
      <point x="245" y="1424"/>
      <point x="227" y="1447"/>
      <point x="194" y="1450" type="curve" smooth="yes"/>
      <point x="75" y="1459" type="line"/>
      <point x="75" y="1561" type="line"/>
      <point x="660" y="1561" type="line"/>
      <point x="660" y="1459" type="line"/>
      <point x="528" y="1450" type="line"/>
      <point x="495" y="1447"/>
      <point x="479" y="1424"/>
      <point x="479" y="1401" type="curve" smooth="yes"/>
      <point x="479" y="880" type="line"/>
      <point x="1241" y="880" type="line"/>
      <point x="1241" y="1401" type="line" smooth="yes"/>
      <point x="1241" y="1424"/>
      <point x="1224" y="1447"/>
      <point x="1192" y="1450" type="curve"/>
      <point x="1060" y="1459" type="line"/>
      <point x="1060" y="1561" type="line"/>
      <point x="1645" y="1561" type="line"/>
      <point x="1645" y="1459" type="line"/>
      <point x="1526" y="1450" type="line" smooth="yes"/>
      <point x="1493" y="1447"/>
      <point x="1475" y="1424"/>
      <point x="1475" y="1401" type="curve" smooth="yes"/>
      <point x="1475" y="167" type="line" smooth="yes"/>
      <point x="1475" y="144"/>
      <point x="1493" y="120"/>
      <point x="1526" y="116" type="curve"/>
      <point x="1645" y="107" type="line"/>
      <point x="1645" y="8" type="line"/>
    </contour>
  </outline>
</glyph>
<glyph name="J" format="2">
  <advance width="1122"/>
  <unicode hex="004A"/>
  <outline>
    <contour>
      <point x="928" y="1452" type="line"/>
      <point x="896" y="1449"/>
      <point x="879" y="1424"/>
      <point x="879" y="1401" type="curve" smooth="yes"/>
      <point x="879" y="593" type="line" smooth="yes"/>
      <point x="879" y="209"/>
      <point x="744" y="-29"/>
      <point x="371" y="-29" type="curve" smooth="yes"/>
      <point x="221" y="-29"/>
      <point x="69" y="30"/>
      <point x="58" y="36" type="curve"/>
      <point x="58" y="432" type="line"/>
      <point x="197" y="432" type="line"/>
      <point x="247" y="149" type="line"/>
      <point x="258" y="104"/>
      <point x="308" y="89"/>
      <point x="354" y="89" type="curve" smooth="yes"/>
      <point x="566" y="89"/>
      <point x="645" y="251"/>
      <point x="645" y="578" type="curve" smooth="yes"/>
      <point x="645" y="1401" type="line" smooth="yes"/>
      <point x="645" y="1424"/>
      <point x="630" y="1449"/>
      <point x="597" y="1452" type="curve"/>
      <point x="451" y="1461" type="line"/>
      <point x="451" y="1561" type="line"/>
      <point x="1062" y="1561" type="line"/>
      <point x="1062" y="1461" type="line"/>
    </contour>
  </outline>
</glyph>
<glyph name="N" format="2">
  <advance width="1669"/>
  <unicode hex="004E"/>
  <outline>
    <contour>
      <point x="1472" y="1452" type="line"/>
      <point x="1440" y="1449"/>
      <point x="1424" y="1424"/>
      <point x="1424" y="1401" type="curve" smooth="yes"/>
      <point x="1424" y="8" type="line"/>
      <point x="1243" y="8" type="line"/>
      <point x="382" y="1304" type="line"/>
      <point x="382" y="167" type="line" smooth="yes"/>
      <point x="382" y="144"/>
      <point x="398" y="120"/>
      <point x="431" y="116" type="curve"/>
      <point x="563" y="107" type="line"/>
      <point x="563" y="8" type="line"/>
      <point x="62" y="8" type="line"/>
      <point x="62" y="107" type="line"/>
      <point x="194" y="116" type="line"/>
      <point x="227" y="120"/>
      <point x="245" y="144"/>
      <point x="245" y="167" type="curve" smooth="yes"/>
      <point x="245" y="1401" type="line" smooth="yes"/>
      <point x="245" y="1424"/>
      <point x="227" y="1449"/>
      <point x="194" y="1452" type="curve"/>
      <point x="58" y="1461" type="line"/>
      <point x="58" y="1561" type="line"/>
      <point x="516" y="1561" type="line"/>
      <point x="516" y="1503" type="line"/>
      <point x="1287" y="339" type="line"/>
      <point x="1287" y="1401" type="line" smooth="yes"/>
      <point x="1287" y="1424"/>
      <point x="1270" y="1449"/>
      <point x="1238" y="1452" type="curve"/>
      <point x="1106" y="1461" type="line"/>
      <point x="1106" y="1561" type="line"/>
      <point x="1601" y="1561" type="line"/>
      <point x="1601" y="1461" type="line"/>
    </contour>
  </outline>
</glyph>
<glyph name="P" format="2">
  <advance width="1340"/>
  <unicode hex="0050"/>
  <outline>
    <contour>
      <point x="1009" y="1091" type="curve" smooth="yes"/>
      <point x="1009" y="1315"/>
      <point x="895" y="1448"/>
      <point x="599" y="1448" type="curve" smooth="yes"/>
      <point x="578" y="1448"/>
      <point x="548" y="1446"/>
      <point x="524" y="1446" type="curve"/>
      <point x="511" y="1445"/>
      <point x="496" y="1445"/>
      <point x="481" y="1445" type="curve"/>
      <point x="481" y="717" type="line"/>
      <point x="490" y="717"/>
      <point x="565" y="704"/>
      <point x="611" y="704" type="curve"/>
      <point x="855" y="701"/>
      <point x="1009" y="822"/>
    </contour>
    <contour>
      <point x="1250" y="1094" type="curve" smooth="yes"/>
      <point x="1250" y="752"/>
      <point x="980" y="586"/>
      <point x="645" y="589" type="curve"/>
      <point x="587" y="589"/>
      <point x="493" y="596"/>
      <point x="481" y="598" type="curve"/>
      <point x="481" y="167" type="line" smooth="yes"/>
      <point x="481" y="144"/>
      <point x="497" y="120"/>
      <point x="530" y="116" type="curve"/>
      <point x="683" y="107" type="line"/>
      <point x="683" y="8" type="line"/>
      <point x="75" y="8" type="line"/>
      <point x="75" y="107" type="line"/>
      <point x="197" y="116" type="line"/>
      <point x="229" y="120"/>
      <point x="247" y="144"/>
      <point x="247" y="167" type="curve" smooth="yes"/>
      <point x="247" y="1401" type="line" smooth="yes"/>
      <point x="247" y="1424"/>
      <point x="229" y="1449"/>
      <point x="197" y="1452" type="curve"/>
      <point x="58" y="1461" type="line"/>
      <point x="58" y="1561" type="line"/>
      <point x="611" y="1561" type="line" smooth="yes"/>
      <point x="1048" y="1561"/>
      <point x="1250" y="1436"/>
    </contour>
  </outline>
</glyph>
<glyph name="Q" format="2">
  <advance width="1710"/>
  <unicode hex="0051"/>
  <outline>
    <contour>
      <point x="1347" y="783" type="curve" smooth="yes"/>
      <point x="1347" y="1146"/>
      <point x="1193" y="1468"/>
      <point x="854" y="1468" type="curve" smooth="yes"/>
      <point x="516" y="1468"/>
      <point x="360" y="1156"/>
      <point x="360" y="788" type="curve" smooth="yes"/>
      <point x="360" y="424"/>
      <point x="523" y="98"/>
      <point x="854" y="98" type="curve" smooth="yes"/>
      <point x="1189" y="98"/>
      <point x="1347" y="421"/>
    </contour>
    <contour>
      <point x="1620" y="783" type="curve" smooth="yes"/>
      <point x="1620" y="366"/>
      <point x="1381" y="49"/>
      <point x="981" y="-18" type="curve"/>
      <point x="984" y="-191"/>
      <point x="1086" y="-297"/>
      <point x="1301" y="-297" type="curve" smooth="yes"/>
      <point x="1411" y="-297"/>
      <point x="1505" y="-279"/>
      <point x="1523" y="-272" type="curve"/>
      <point x="1523" y="-372" type="line"/>
      <point x="1490" y="-378"/>
      <point x="1343" y="-411"/>
      <point x="1180" y="-411" type="curve" smooth="yes"/>
      <point x="855" y="-411"/>
      <point x="733" y="-260"/>
      <point x="733" y="-23" type="curve"/>
      <point x="364" y="33"/>
      <point x="90" y="328"/>
      <point x="90" y="783" type="curve" smooth="yes"/>
      <point x="90" y="1235"/>
      <point x="389" y="1598"/>
      <point x="852" y="1598" type="curve" smooth="yes"/>
      <point x="1321" y="1598"/>
      <point x="1620" y="1239"/>
    </contour>
  </outline>
</glyph>
<glyph name="S" format="2">
  <advance width="1206"/>
  <unicode hex="0053"/>
  <outline>
    <contour>
      <point x="1115" y="443" type="curve" smooth="yes"/>
      <point x="1115" y="207"/>
      <point x="936" y="-29"/>
      <point x="502" y="-29" type="curve" smooth="yes"/>
      <point x="375" y="-29"/>
      <point x="275" y="-7"/>
      <point x="202" y="14" type="curve"/>
      <point x="161" y="27"/>
      <point x="123" y="41"/>
      <point x="90" y="57" type="curve"/>
      <point x="90" y="467" type="line"/>
      <point x="236" y="467" type="line"/>
      <point x="267" y="205" type="line"/>
      <point x="270" y="186"/>
      <point x="289" y="161"/>
      <point x="305" y="154" type="curve" smooth="yes"/>
      <point x="312" y="151"/>
      <point x="395" y="101"/>
      <point x="539" y="101" type="curve" smooth="yes"/>
      <point x="736" y="101"/>
      <point x="879" y="202"/>
      <point x="879" y="374" type="curve" smooth="yes"/>
      <point x="879" y="561"/>
      <point x="641" y="646"/>
      <point x="472" y="728" type="curve" smooth="yes"/>
      <point x="282" y="819"/>
      <point x="115" y="908"/>
      <point x="115" y="1145" type="curve" smooth="yes"/>
      <point x="115" y="1420"/>
      <point x="346" y="1598"/>
      <point x="650" y="1598" type="curve" smooth="yes"/>
      <point x="826" y="1598"/>
      <point x="956" y="1550"/>
      <point x="1058" y="1519" type="curve"/>
      <point x="1058" y="1158" type="line"/>
      <point x="925" y="1158" type="line"/>
      <point x="890" y="1380" type="line"/>
      <point x="887" y="1395"/>
      <point x="870" y="1412"/>
      <point x="857" y="1419" type="curve"/>
      <point x="848" y="1425"/>
      <point x="794" y="1472"/>
      <point x="653" y="1472" type="curve" smooth="yes"/>
      <point x="467" y="1472"/>
      <point x="354" y="1357"/>
      <point x="354" y="1200" type="curve" smooth="yes"/>
      <point x="354" y="1059"/>
      <point x="468" y="971"/>
      <point x="676" y="894" type="curve"/>
      <point x="957" y="787"/>
      <point x="1115" y="674"/>
    </contour>
  </outline>
</glyph>
<glyph name="T" format="2">
  <advance width="1387"/>
  <unicode hex="0054"/>
  <outline>
    <contour>
      <point x="1212" y="1191" type="line"/>
      <point x="1180" y="1408" type="line"/>
      <point x="1175" y="1432"/>
      <point x="1162" y="1448"/>
      <point x="1141" y="1448" type="curve" smooth="yes"/>
      <point x="810" y="1448" type="line"/>
      <point x="810" y="167" type="line" smooth="yes"/>
      <point x="810" y="144"/>
      <point x="826" y="120"/>
      <point x="859" y="116" type="curve"/>
      <point x="1007" y="107" type="line"/>
      <point x="1007" y="8" type="line"/>
      <point x="380" y="8" type="line"/>
      <point x="380" y="107" type="line"/>
      <point x="528" y="116" type="line"/>
      <point x="561" y="120"/>
      <point x="576" y="144"/>
      <point x="576" y="167" type="curve" smooth="yes"/>
      <point x="576" y="1448" type="line"/>
      <point x="243" y="1448" type="line" smooth="yes"/>
      <point x="222" y="1448"/>
      <point x="207" y="1432"/>
      <point x="203" y="1408" type="curve" smooth="yes"/>
      <point x="172" y="1191" type="line"/>
      <point x="37" y="1191" type="line"/>
      <point x="37" y="1561" type="line"/>
      <point x="1349" y="1561" type="line"/>
      <point x="1349" y="1191" type="line"/>
    </contour>
  </outline>
</glyph>
<glyph name="V" format="2">
  <advance width="1541"/>
  <unicode hex="0056"/>
  <outline>
    <contour>
      <point x="1384" y="1436" type="line"/>
      <point x="866" y="-29" type="line"/>
      <point x="689" y="-29" type="line"/>
      <point x="159" y="1439" type="line"/>
      <point x="23" y="1461" type="line"/>
      <point x="23" y="1561" type="line"/>
      <point x="576" y="1561" type="line"/>
      <point x="576" y="1461" type="line"/>
      <point x="440" y="1450" type="line"/>
      <point x="423" y="1447"/>
      <point x="415" y="1421"/>
      <point x="419" y="1408" type="curve"/>
      <point x="826" y="265" type="line"/>
      <point x="1217" y="1404" type="line"/>
      <point x="1224" y="1421"/>
      <point x="1205" y="1447"/>
      <point x="1185" y="1450" type="curve"/>
      <point x="1058" y="1461" type="line"/>
      <point x="1058" y="1561" type="line"/>
      <point x="1518" y="1561" type="line"/>
      <point x="1518" y="1461" type="line"/>
    </contour>
  </outline>
</glyph>
<glyph name="W" format="2">
  <advance width="2155"/>
  <unicode hex="0057"/>
  <outline>
    <contour>
      <point x="1990" y="1434" type="line"/>
      <point x="1636" y="-29" type="line"/>
      <point x="1467" y="-29" type="line"/>
      <point x="1080" y="1253" type="line"/>
      <point x="702" y="-29" type="line"/>
      <point x="534" y="-29" type="line"/>
      <point x="157" y="1434" type="line"/>
      <point x="23" y="1461" type="line"/>
      <point x="23" y="1561" type="line"/>
      <point x="553" y="1561" type="line"/>
      <point x="553" y="1461" type="line"/>
      <point x="415" y="1448" type="line"/>
      <point x="394" y="1444"/>
      <point x="387" y="1422"/>
      <point x="391" y="1401" type="curve"/>
      <point x="667" y="357" type="line"/>
      <point x="1029" y="1561" type="line"/>
      <point x="1208" y="1561" type="line"/>
      <point x="1581" y="320" type="line"/>
      <point x="1837" y="1401" type="line" smooth="yes"/>
      <point x="1842" y="1422"/>
      <point x="1829" y="1444"/>
      <point x="1805" y="1448" type="curve"/>
      <point x="1659" y="1461" type="line"/>
      <point x="1659" y="1561" type="line"/>
      <point x="2131" y="1561" type="line"/>
      <point x="2131" y="1461" type="line"/>
    </contour>
  </outline>
</glyph>
<glyph name="X" format="2">
  <advance width="1467"/>
  <unicode hex="0058"/>
  <outline>
    <contour>
      <point x="850" y="8" type="line"/>
      <point x="850" y="107" type="line"/>
      <point x="983" y="121" type="line" smooth="yes"/>
      <point x="1007" y="124"/>
      <point x="1026" y="147"/>
      <point x="1011" y="170" type="curve" smooth="yes"/>
      <point x="704" y="653" type="line"/>
      <point x="347" y="163" type="line" smooth="yes"/>
      <point x="335" y="146"/>
      <point x="338" y="122"/>
      <point x="375" y="119" type="curve" smooth="yes"/>
      <point x="514" y="107" type="line"/>
      <point x="514" y="8" type="line"/>
      <point x="23" y="8" type="line"/>
      <point x="23" y="107" type="line"/>
      <point x="162" y="136" type="line"/>
      <point x="627" y="774" type="line"/>
      <point x="206" y="1434" type="line"/>
      <point x="53" y="1461" type="line"/>
      <point x="53" y="1561" type="line"/>
      <point x="634" y="1561" type="line"/>
      <point x="634" y="1461" type="line"/>
      <point x="516" y="1450" type="line" smooth="yes"/>
      <point x="479" y="1447"/>
      <point x="476" y="1421"/>
      <point x="488" y="1404" type="curve"/>
      <point x="771" y="969" type="line"/>
      <point x="1083" y="1397" type="line" smooth="yes"/>
      <point x="1099" y="1420"/>
      <point x="1081" y="1442"/>
      <point x="1058" y="1445" type="curve" smooth="yes"/>
      <point x="939" y="1461" type="line"/>
      <point x="939" y="1561" type="line"/>
      <point x="1424" y="1561" type="line"/>
      <point x="1424" y="1461" type="line"/>
      <point x="1275" y="1439" type="line"/>
      <point x="845" y="848" type="line"/>
      <point x="1301" y="136" type="line"/>
      <point x="1444" y="107" type="line"/>
      <point x="1444" y="8" type="line"/>
    </contour>
  </outline>
</glyph>
<glyph name="Y" format="2">
  <advance width="1449"/>
  <unicode hex="0059"/>
  <outline>
    <contour>
      <point x="1301" y="1439" type="line"/>
      <point x="835" y="668" type="line"/>
      <point x="835" y="167" type="line" smooth="yes"/>
      <point x="835" y="144"/>
      <point x="852" y="120"/>
      <point x="884" y="116" type="curve"/>
      <point x="1032" y="107" type="line"/>
      <point x="1032" y="8" type="line"/>
      <point x="407" y="8" type="line"/>
      <point x="407" y="107" type="line"/>
      <point x="550" y="116" type="line"/>
      <point x="583" y="120"/>
      <point x="601" y="144"/>
      <point x="601" y="167" type="curve" smooth="yes"/>
      <point x="601" y="633" type="line"/>
      <point x="157" y="1434" type="line"/>
      <point x="23" y="1461" type="line"/>
      <point x="23" y="1561" type="line"/>
      <point x="572" y="1561" type="line"/>
      <point x="572" y="1461" type="line"/>
      <point x="455" y="1450" type="line"/>
      <point x="419" y="1445"/>
      <point x="419" y="1421"/>
      <point x="428" y="1404" type="curve" smooth="yes"/>
      <point x="755" y="799" type="line"/>
      <point x="1113" y="1397" type="line" smooth="yes"/>
      <point x="1126" y="1420"/>
      <point x="1109" y="1442"/>
      <point x="1086" y="1445" type="curve" smooth="yes"/>
      <point x="956" y="1461" type="line"/>
      <point x="956" y="1561" type="line"/>
      <point x="1426" y="1561" type="line"/>
      <point x="1426" y="1461" type="line"/>
    </contour>
  </outline>
</glyph>
<glyph name="Z" format="2">
  <advance width="1331"/>
  <unicode hex="005A"/>
  <outline>
    <contour>
      <point x="90" y="8" type="line"/>
      <point x="90" y="110" type="line"/>
      <point x="951" y="1445" type="line"/>
      <point x="349" y="1445" type="line" smooth="yes"/>
      <point x="328" y="1445"/>
      <point x="315" y="1429"/>
      <point x="310" y="1406" type="curve"/>
      <point x="276" y="1191" type="line"/>
      <point x="139" y="1191" type="line"/>
      <point x="139" y="1561" type="line"/>
      <point x="1228" y="1561" type="line"/>
      <point x="1228" y="1454" type="line"/>
      <point x="366" y="126" type="line"/>
      <point x="1025" y="126" type="line" smooth="yes"/>
      <point x="1046" y="126"/>
      <point x="1060" y="144"/>
      <point x="1064" y="167" type="curve" smooth="yes"/>
      <point x="1104" y="436" type="line"/>
      <point x="1241" y="436" type="line"/>
      <point x="1241" y="8" type="line"/>
    </contour>
  </outline>
</glyph>
<glyph name="bracketleft" format="2">
  <advance width="979"/>
  <unicode hex="005B"/>
  <outline>
    <contour>
      <point x="315" y="-297" type="line"/>
      <point x="315" y="1647" type="line"/>
      <point x="877" y="1647" type="line"/>
      <point x="877" y="1543" type="line"/>
      <point x="516" y="1543" type="line"/>
      <point x="516" y="-191" type="line"/>
      <point x="877" y="-191" type="line"/>
      <point x="877" y="-297" type="line"/>
    </contour>
  </outline>
</glyph>
<glyph name="backslash" format="2">
  <advance width="1131"/>
  <unicode hex="005C"/>
  <outline>
    <contour>
      <point x="983" y="-207" type="line"/>
      <point x="0" y="1561" type="line"/>
      <point x="148" y="1561" type="line"/>
      <point x="1131" y="-207" type="line"/>
    </contour>
  </outline>
</glyph>
<glyph name="bracketright" format="2">
  <advance width="979"/>
  <unicode hex="005D"/>
  <outline>
    <contour>
      <point x="102" y="-297" type="line"/>
      <point x="102" y="-191" type="line"/>
      <point x="466" y="-191" type="line"/>
      <point x="466" y="1543" type="line"/>
      <point x="102" y="1543" type="line"/>
      <point x="102" y="1647" type="line"/>
      <point x="667" y="1647" type="line"/>
      <point x="667" y="-297" type="line"/>
    </contour>
  </outline>
</glyph>
<glyph name="grave" format="2">
  <advance width="810"/>
  <unicode hex="0060"/>
  <outline>
    <contour>
      <point x="405" y="1283" type="line"/>
      <point x="53" y="1508" type="line"/>
      <point x="20" y="1528"/>
      <point x="0" y="1559"/>
      <point x="0" y="1600" type="curve" smooth="yes"/>
      <point x="0" y="1649"/>
      <point x="28" y="1704"/>
      <point x="106" y="1704" type="curve" smooth="yes"/>
      <point x="171" y="1704"/>
      <point x="195" y="1682"/>
      <point x="227" y="1642" type="curve"/>
      <point x="537" y="1283" type="line"/>
    </contour>
  </outline>
</glyph>
<glyph name="d" format="2">
  <advance width="1305"/>
  <unicode hex="0064"/>
  <outline>
    <contour>
      <point x="881" y="1006" type="line"/>
      <point x="841" y="1017"/>
      <point x="753" y="1040"/>
      <point x="685" y="1040" type="curve" smooth="yes"/>
      <point x="455" y="1040"/>
      <point x="307" y="855"/>
      <point x="307" y="575" type="curve" smooth="yes"/>
      <point x="307" y="323"/>
      <point x="430" y="138"/>
      <point x="643" y="138" type="curve" smooth="yes"/>
      <point x="736" y="138"/>
      <point x="821" y="183"/>
      <point x="881" y="218" type="curve"/>
    </contour>
    <contour>
      <point x="881" y="8" type="line"/>
      <point x="881" y="131" type="line"/>
      <point x="775" y="50"/>
      <point x="657" y="-20"/>
      <point x="523" y="-20" type="curve" smooth="yes"/>
      <point x="212" y="-20"/>
      <point x="79" y="274"/>
      <point x="79" y="536" type="curve" smooth="yes"/>
      <point x="79" y="850"/>
      <point x="271" y="1152"/>
      <point x="669" y="1152" type="curve" smooth="yes"/>
      <point x="740" y="1152"/>
      <point x="847" y="1133"/>
      <point x="881" y="1123" type="curve"/>
      <point x="881" y="1547" type="line"/>
      <point x="706" y="1547" type="line"/>
      <point x="706" y="1624" type="line"/>
      <point x="1005" y="1713" type="line"/>
      <point x="1097" y="1713" type="line"/>
      <point x="1097" y="156" type="line" smooth="yes"/>
      <point x="1097" y="128"/>
      <point x="1117" y="108"/>
      <point x="1146" y="105" type="curve"/>
      <point x="1245" y="98" type="line"/>
      <point x="1245" y="8" type="line"/>
    </contour>
  </outline>
</glyph>
<glyph name="h" format="2">
  <advance width="1329"/>
  <unicode hex="0068"/>
  <outline>
    <contour>
      <point x="759" y="8" type="line"/>
      <point x="759" y="98" type="line"/>
      <point x="854" y="105" type="line"/>
      <point x="882" y="108"/>
      <point x="905" y="128"/>
      <point x="905" y="156" type="curve" smooth="yes"/>
      <point x="905" y="753" type="line" smooth="yes"/>
      <point x="905" y="884"/>
      <point x="854" y="982"/>
      <point x="676" y="982" type="curve" smooth="yes"/>
      <point x="592" y="982"/>
      <point x="492" y="953"/>
      <point x="424" y="915" type="curve"/>
      <point x="424" y="156" type="line" smooth="yes"/>
      <point x="424" y="128"/>
      <point x="442" y="108"/>
      <point x="470" y="105" type="curve"/>
      <point x="570" y="98" type="line"/>
      <point x="570" y="8" type="line"/>
      <point x="49" y="8" type="line"/>
      <point x="49" y="98" type="line"/>
      <point x="159" y="105" type="line"/>
      <point x="188" y="108"/>
      <point x="208" y="128"/>
      <point x="208" y="156" type="curve" smooth="yes"/>
      <point x="208" y="1547" type="line"/>
      <point x="35" y="1547" type="line"/>
      <point x="35" y="1624" type="line"/>
      <point x="331" y="1713" type="line"/>
      <point x="424" y="1713" type="line"/>
      <point x="424" y="1008" type="line"/>
      <point x="507" y="1059"/>
      <point x="684" y="1152"/>
      <point x="806" y="1152" type="curve" smooth="yes"/>
      <point x="981" y="1152"/>
      <point x="1120" y="1040"/>
      <point x="1120" y="801" type="curve" smooth="yes"/>
      <point x="1120" y="156" type="line" smooth="yes"/>
      <point x="1120" y="128"/>
      <point x="1143" y="108"/>
      <point x="1171" y="105" type="curve"/>
      <point x="1275" y="98" type="line"/>
      <point x="1275" y="8" type="line"/>
    </contour>
  </outline>
</glyph>
<glyph name="i" format="2">
  <advance width="702"/>
  <unicode hex="0069"/>
  <outline>
    <contour>
      <point x="79" y="8" type="line"/>
      <point x="79" y="98" type="line"/>
      <point x="192" y="105" type="line"/>
      <point x="221" y="108"/>
      <point x="241" y="128"/>
      <point x="241" y="156" type="curve" smooth="yes"/>
      <point x="241" y="982" type="line"/>
      <point x="81" y="982" type="line"/>
      <point x="81" y="1063" type="line"/>
      <point x="364" y="1152" type="line"/>
      <point x="455" y="1152" type="line"/>
      <point x="455" y="156" type="line" smooth="yes"/>
      <point x="455" y="128"/>
      <point x="477" y="108"/>
      <point x="504" y="105" type="curve"/>
      <point x="623" y="98" type="line"/>
      <point x="623" y="8" type="line"/>
    </contour>
    <contour>
      <point x="504" y="1505" type="curve" smooth="yes"/>
      <point x="504" y="1426"/>
      <point x="442" y="1362"/>
      <point x="364" y="1362" type="curve" smooth="yes"/>
      <point x="284" y="1362"/>
      <point x="220" y="1426"/>
      <point x="220" y="1505" type="curve" smooth="yes"/>
      <point x="220" y="1585"/>
      <point x="284" y="1647"/>
      <point x="364" y="1647" type="curve" smooth="yes"/>
      <point x="442" y="1647"/>
      <point x="504" y="1585"/>
    </contour>
  </outline>
</glyph>
<glyph name="n" format="2">
  <advance width="1312"/>
  <unicode hex="006E"/>
  <outline>
    <contour>
      <point x="755" y="8" type="line"/>
      <point x="755" y="98" type="line"/>
      <point x="852" y="105" type="line"/>
      <point x="879" y="108"/>
      <point x="901" y="128"/>
      <point x="901" y="156" type="curve" smooth="yes"/>
      <point x="901" y="758" type="line" smooth="yes"/>
      <point x="901" y="905"/>
      <point x="839" y="982"/>
      <point x="678" y="982" type="curve" smooth="yes"/>
      <point x="589" y="982"/>
      <point x="503" y="955"/>
      <point x="424" y="915" type="curve"/>
      <point x="424" y="156" type="line" smooth="yes"/>
      <point x="424" y="128"/>
      <point x="444" y="108"/>
      <point x="472" y="105" type="curve"/>
      <point x="570" y="98" type="line"/>
      <point x="570" y="8" type="line"/>
      <point x="46" y="8" type="line"/>
      <point x="46" y="98" type="line"/>
      <point x="159" y="105" type="line"/>
      <point x="188" y="108"/>
      <point x="208" y="128"/>
      <point x="208" y="156" type="curve" smooth="yes"/>
      <point x="208" y="959" type="line"/>
      <point x="46" y="959" type="line"/>
      <point x="46" y="1035" type="line"/>
      <point x="329" y="1123" type="line"/>
      <point x="424" y="1123" type="line"/>
      <point x="424" y="1008" type="line"/>
      <point x="553" y="1080"/>
      <point x="697" y="1152"/>
      <point x="806" y="1152" type="curve" smooth="yes"/>
      <point x="1007" y="1152"/>
      <point x="1115" y="1021"/>
      <point x="1115" y="794" type="curve" smooth="yes"/>
      <point x="1115" y="156" type="line" smooth="yes"/>
      <point x="1115" y="128"/>
      <point x="1137" y="108"/>
      <point x="1164" y="105" type="curve"/>
      <point x="1266" y="98" type="line"/>
      <point x="1266" y="8" type="line"/>
    </contour>
  </outline>
</glyph>
<glyph name="o" format="2">
  <advance width="1259"/>
  <unicode hex="006F"/>
  <outline>
    <contour>
      <point x="939" y="566" type="curve" smooth="yes"/>
      <point x="939" y="819"/>
      <point x="840" y="1048"/>
      <point x="632" y="1048" type="curve" smooth="yes"/>
      <point x="416" y="1048"/>
      <point x="322" y="819"/>
      <point x="322" y="566" type="curve" smooth="yes"/>
      <point x="322" y="315"/>
      <point x="421" y="85"/>
      <point x="629" y="85" type="curve" smooth="yes"/>
      <point x="842" y="85"/>
      <point x="939" y="313"/>
    </contour>
    <contour>
      <point x="1180" y="564" type="curve" smooth="yes"/>
      <point x="1180" y="235"/>
      <point x="965" y="-20"/>
      <point x="627" y="-20" type="curve" smooth="yes"/>
      <point x="289" y="-20"/>
      <point x="79" y="231"/>
      <point x="79" y="564" type="curve" smooth="yes"/>
      <point x="79" y="893"/>
      <point x="292" y="1152"/>
      <point x="634" y="1152" type="curve" smooth="yes"/>
      <point x="978" y="1152"/>
      <point x="1180" y="888"/>
    </contour>
  </outline>
</glyph>
<glyph name="p" format="2">
  <advance width="1294"/>
  <unicode hex="0070"/>
  <outline>
    <contour>
      <point x="983" y="549" type="curve" smooth="yes"/>
      <point x="983" y="788"/>
      <point x="871" y="989"/>
      <point x="660" y="989" type="curve" smooth="yes"/>
      <point x="601" y="989"/>
      <point x="542" y="970"/>
      <point x="498" y="954" type="curve"/>
      <point x="473" y="944"/>
      <point x="448" y="933"/>
      <point x="424" y="920" type="curve"/>
      <point x="424" y="123" type="line"/>
      <point x="442" y="116"/>
      <point x="461" y="110"/>
      <point x="481" y="105" type="curve" smooth="yes"/>
      <point x="516" y="96"/>
      <point x="563" y="87"/>
      <point x="611" y="87" type="curve" smooth="yes"/>
      <point x="864" y="87"/>
      <point x="983" y="309"/>
    </contour>
    <contour>
      <point x="1215" y="582" type="curve" smooth="yes"/>
      <point x="1215" y="218"/>
      <point x="995" y="-20"/>
      <point x="629" y="-20" type="curve" smooth="yes"/>
      <point x="588" y="-20"/>
      <point x="535" y="-17"/>
      <point x="495" y="-10" type="curve"/>
      <point x="471" y="-7"/>
      <point x="447" y="-4"/>
      <point x="424" y="1" type="curve"/>
      <point x="424" y="-343" type="line" smooth="yes"/>
      <point x="424" y="-372"/>
      <point x="446" y="-389"/>
      <point x="475" y="-392" type="curve" smooth="yes"/>
      <point x="611" y="-407" type="line"/>
      <point x="611" y="-496" type="line"/>
      <point x="49" y="-496" type="line"/>
      <point x="49" y="-407" type="line"/>
      <point x="159" y="-392" type="line"/>
      <point x="188" y="-389"/>
      <point x="208" y="-372"/>
      <point x="208" y="-343" type="curve" smooth="yes"/>
      <point x="208" y="959" type="line"/>
      <point x="49" y="959" type="line"/>
      <point x="49" y="1035" type="line"/>
      <point x="333" y="1123" type="line"/>
      <point x="424" y="1123" type="line"/>
      <point x="424" y="1008" type="line"/>
      <point x="457" y="1035"/>
      <point x="492" y="1058"/>
      <point x="530" y="1079" type="curve" smooth="yes"/>
      <point x="595" y="1115"/>
      <point x="682" y="1152"/>
      <point x="773" y="1152" type="curve" smooth="yes"/>
      <point x="1011" y="1152"/>
      <point x="1215" y="925"/>
    </contour>
  </outline>
</glyph>
<glyph name="r" format="2">
  <advance width="905"/>
  <unicode hex="0072"/>
  <outline>
    <contour>
      <point x="791" y="887" type="line"/>
      <point x="760" y="922"/>
      <point x="724" y="950"/>
      <point x="667" y="950" type="curve" smooth="yes"/>
      <point x="591" y="950"/>
      <point x="515" y="898"/>
      <point x="435" y="807" type="curve"/>
      <point x="435" y="156" type="line" smooth="yes"/>
      <point x="435" y="128"/>
      <point x="455" y="108"/>
      <point x="484" y="105" type="curve"/>
      <point x="636" y="98" type="line"/>
      <point x="636" y="8" type="line"/>
      <point x="58" y="8" type="line"/>
      <point x="58" y="96" type="line"/>
      <point x="172" y="105" type="line"/>
      <point x="199" y="108"/>
      <point x="220" y="128"/>
      <point x="220" y="156" type="curve" smooth="yes"/>
      <point x="220" y="959" type="line"/>
      <point x="53" y="959" type="line"/>
      <point x="53" y="1035" type="line"/>
      <point x="340" y="1123" type="line"/>
      <point x="435" y="1123" type="line"/>
      <point x="435" y="918" type="line"/>
      <point x="502" y="991"/>
      <point x="630" y="1152"/>
      <point x="740" y="1152" type="curve" smooth="yes"/>
      <point x="790" y="1152"/>
      <point x="851" y="1131"/>
      <point x="881" y="1117" type="curve"/>
      <point x="881" y="887" type="line"/>
    </contour>
  </outline>
</glyph>
<glyph name="u" format="2">
  <advance width="1316"/>
  <unicode hex="0075"/>
  <outline>
    <contour>
      <point x="901" y="8" type="line"/>
      <point x="901" y="140" type="line"/>
      <point x="819" y="80"/>
      <point x="668" y="-20"/>
      <point x="530" y="-20" type="curve" smooth="yes"/>
      <point x="331" y="-20"/>
      <point x="210" y="94"/>
      <point x="210" y="355" type="curve" smooth="yes"/>
      <point x="210" y="982" type="line"/>
      <point x="49" y="982" type="line"/>
      <point x="49" y="1061" type="line"/>
      <point x="333" y="1152" type="line"/>
      <point x="426" y="1152" type="line"/>
      <point x="426" y="399" type="line" smooth="yes"/>
      <point x="426" y="235"/>
      <point x="486" y="138"/>
      <point x="650" y="138" type="curve" smooth="yes"/>
      <point x="744" y="138"/>
      <point x="845" y="180"/>
      <point x="901" y="207" type="curve"/>
      <point x="901" y="982" type="line"/>
      <point x="738" y="982" type="line"/>
      <point x="738" y="1061" type="line"/>
      <point x="1020" y="1152" type="line"/>
      <point x="1115" y="1152" type="line"/>
      <point x="1115" y="156" type="line" smooth="yes"/>
      <point x="1115" y="128"/>
      <point x="1139" y="108"/>
      <point x="1166" y="105" type="curve"/>
      <point x="1268" y="98" type="line"/>
      <point x="1268" y="8" type="line"/>
    </contour>
  </outline>
</glyph>
<glyph name="v" format="2">
  <advance width="1224"/>
  <unicode hex="0076"/>
  <outline>
    <contour>
      <point x="1078" y="1019" type="line"/>
      <point x="673" y="8" type="line"/>
      <point x="523" y="8" type="line"/>
      <point x="150" y="1019" type="line"/>
      <point x="23" y="1033" type="line"/>
      <point x="23" y="1123" type="line"/>
      <point x="534" y="1123" type="line"/>
      <point x="534" y="1033" type="line"/>
      <point x="424" y="1026" type="line"/>
      <point x="399" y="1023"/>
      <point x="380" y="1000"/>
      <point x="389" y="975" type="curve" smooth="yes"/>
      <point x="647" y="251" type="line"/>
      <point x="932" y="975" type="line"/>
      <point x="943" y="999"/>
      <point x="926" y="1023"/>
      <point x="901" y="1026" type="curve"/>
      <point x="797" y="1033" type="line"/>
      <point x="797" y="1123" type="line"/>
      <point x="1201" y="1123" type="line"/>
      <point x="1201" y="1033" type="line"/>
    </contour>
  </outline>
</glyph>
<glyph name="x" format="2">
  <advance width="1180"/>
  <unicode hex="0078"/>
  <outline>
    <contour>
      <point x="660" y="8" type="line"/>
      <point x="660" y="98" type="line"/>
      <point x="738" y="107" type="line"/>
      <point x="759" y="111"/>
      <point x="768" y="133"/>
      <point x="759" y="149" type="curve"/>
      <point x="560" y="445" type="line"/>
      <point x="333" y="149" type="line"/>
      <point x="321" y="136"/>
      <point x="326" y="111"/>
      <point x="347" y="107" type="curve"/>
      <point x="463" y="98" type="line"/>
      <point x="463" y="8" type="line"/>
      <point x="23" y="8" type="line"/>
      <point x="23" y="98" type="line"/>
      <point x="155" y="116" type="line"/>
      <point x="486" y="547" type="line"/>
      <point x="172" y="1013" type="line"/>
      <point x="35" y="1033" type="line"/>
      <point x="35" y="1123" type="line"/>
      <point x="544" y="1123" type="line"/>
      <point x="544" y="1033" type="line"/>
      <point x="463" y="1022" type="line"/>
      <point x="442" y="1018"/>
      <point x="431" y="996"/>
      <point x="440" y="980" type="curve"/>
      <point x="623" y="721" type="line"/>
      <point x="824" y="980" type="line"/>
      <point x="836" y="993"/>
      <point x="829" y="1018"/>
      <point x="808" y="1022" type="curve"/>
      <point x="709" y="1033" type="line"/>
      <point x="709" y="1123" type="line"/>
      <point x="1124" y="1123" type="line"/>
      <point x="1124" y="1033" type="line"/>
      <point x="1000" y="1013" type="line"/>
      <point x="689" y="617" type="line"/>
      <point x="1032" y="116" type="line"/>
      <point x="1157" y="98" type="line"/>
      <point x="1157" y="8" type="line"/>
    </contour>
  </outline>
</glyph>
<glyph name="y" format="2">
  <advance width="1226"/>
  <unicode hex="0079"/>
  <outline>
    <contour>
      <point x="1083" y="1019" type="line"/>
      <point x="638" y="-63" type="line"/>
      <point x="609" y="-137"/>
      <point x="524" y="-338"/>
      <point x="428" y="-434" type="curve" smooth="yes"/>
      <point x="372" y="-490"/>
      <point x="306" y="-522"/>
      <point x="227" y="-522" type="curve" smooth="yes"/>
      <point x="118" y="-522"/>
      <point x="58" y="-460"/>
      <point x="58" y="-390" type="curve" smooth="yes"/>
      <point x="58" y="-337"/>
      <point x="80" y="-295"/>
      <point x="132" y="-251" type="curve"/>
      <point x="349" y="-350" type="line"/>
      <point x="425" y="-274"/>
      <point x="509" y="-92"/>
      <point x="544" y="10" type="curve"/>
      <point x="150" y="1019" type="line"/>
      <point x="23" y="1033" type="line"/>
      <point x="23" y="1123" type="line"/>
      <point x="534" y="1123" type="line"/>
      <point x="534" y="1033" type="line"/>
      <point x="424" y="1026" type="line"/>
      <point x="399" y="1023"/>
      <point x="380" y="1000"/>
      <point x="389" y="975" type="curve"/>
      <point x="658" y="293" type="line"/>
      <point x="932" y="975" type="line"/>
      <point x="943" y="999"/>
      <point x="926" y="1023"/>
      <point x="901" y="1026" type="curve"/>
      <point x="791" y="1033" type="line"/>
      <point x="791" y="1123" type="line"/>
      <point x="1203" y="1123" type="line"/>
      <point x="1203" y="1033" type="line"/>
    </contour>
  </outline>
</glyph>
<glyph name="z" format="2">
  <advance width="1069"/>
  <unicode hex="007A"/>
  <outline>
    <contour>
      <point x="79" y="8" type="line"/>
      <point x="79" y="131" type="line"/>
      <point x="692" y="1015" type="line"/>
      <point x="289" y="1015" type="line" smooth="yes"/>
      <point x="266" y="1015"/>
      <point x="247" y="987"/>
      <point x="243" y="966" type="curve"/>
      <point x="220" y="794" type="line"/>
      <point x="102" y="794" type="line"/>
      <point x="102" y="1123" type="line"/>
      <point x="958" y="1123" type="line"/>
      <point x="958" y="1028" type="line"/>
      <point x="324" y="119" type="line"/>
      <point x="791" y="119" type="line" smooth="yes"/>
      <point x="812" y="119"/>
      <point x="839" y="151"/>
      <point x="842" y="174" type="curve" smooth="yes"/>
      <point x="866" y="357" type="line"/>
      <point x="991" y="357" type="line"/>
      <point x="991" y="8" type="line"/>
    </contour>
  </outline>
</glyph>
<glyph name="braceleft" format="2">
  <advance width="1129"/>
  <unicode hex="007B"/>
  <outline>
    <contour>
      <point x="970" y="-277" type="line"/>
      <point x="808" y="-277"/>
      <point x="643" y="-256"/>
      <point x="567" y="-175" type="curve" smooth="yes"/>
      <point x="491" y="-95"/>
      <point x="472" y="14"/>
      <point x="472" y="123" type="curve" smooth="yes"/>
      <point x="472" y="322" type="line" smooth="yes"/>
      <point x="472" y="411"/>
      <point x="460" y="515"/>
      <point x="407" y="566" type="curve"/>
      <point x="352" y="621"/>
      <point x="272" y="628"/>
      <point x="139" y="628" type="curve"/>
      <point x="139" y="732" type="line"/>
      <point x="273" y="732"/>
      <point x="351" y="741"/>
      <point x="407" y="794" type="curve" smooth="yes"/>
      <point x="460" y="845"/>
      <point x="472" y="950"/>
      <point x="472" y="1039" type="curve" smooth="yes"/>
      <point x="472" y="1236" type="line" smooth="yes"/>
      <point x="472" y="1347"/>
      <point x="491" y="1456"/>
      <point x="567" y="1536" type="curve" smooth="yes"/>
      <point x="644" y="1616"/>
      <point x="806" y="1637"/>
      <point x="970" y="1637" type="curve"/>
      <point x="970" y="1543" type="line"/>
      <point x="931" y="1543"/>
      <point x="791" y="1535"/>
      <point x="733" y="1472" type="curve"/>
      <point x="671" y="1402"/>
      <point x="678" y="1261"/>
      <point x="678" y="1130" type="curve" smooth="yes"/>
      <point x="678" y="1026"/>
      <point x="674" y="890"/>
      <point x="611" y="814" type="curve"/>
      <point x="550" y="734"/>
      <point x="461" y="702"/>
      <point x="366" y="681" type="curve"/>
      <point x="461" y="661"/>
      <point x="550" y="627"/>
      <point x="611" y="547" type="curve"/>
      <point x="674" y="471"/>
      <point x="678" y="335"/>
      <point x="678" y="231" type="curve" smooth="yes"/>
      <point x="678" y="100"/>
      <point x="670" y="-41"/>
      <point x="733" y="-112" type="curve"/>
      <point x="791" y="-175"/>
      <point x="931" y="-182"/>
      <point x="970" y="-182" type="curve"/>
    </contour>
  </outline>
</glyph>
<glyph name="degree" format="2">
  <advance width="1360"/>
  <unicode hex="00B0"/>
  <anchor x="680" y="-128" name="L"/>
  <anchor x="680" y="1260" name="U"/>
  <outline>
    <contour>
      <point x="1084" y="566" type="curve" smooth="yes"/>
      <point x="1084" y="330"/>
      <point x="912" y="136"/>
      <point x="680" y="136" type="curve" smooth="yes"/>
      <point x="448" y="136"/>
      <point x="276" y="330"/>
      <point x="276" y="566" type="curve" smooth="yes"/>
      <point x="276" y="802"/>
      <point x="456" y="996"/>
      <point x="680" y="996" type="curve" smooth="yes"/>
      <point x="920" y="996"/>
      <point x="1084" y="802"/>
    </contour>
    <contour>
      <point x="120" y="566" type="curve" smooth="yes"/>
      <point x="120" y="244"/>
      <point x="366" y="-20"/>
      <point x="680" y="-20" type="curve"/>
      <point x="994" y="-20"/>
      <point x="1240" y="244"/>
      <point x="1240" y="566" type="curve" smooth="yes"/>
      <point x="1240" y="886"/>
      <point x="1002" y="1152"/>
      <point x="680" y="1152" type="curve" smooth="yes"/>
      <point x="374" y="1152"/>
      <point x="120" y="886"/>
    </contour>
  </outline>
</glyph>
<glyph name="Aring" format="2">
  <advance width="1385"/>
  <unicode hex="00C5"/>
  <outline>
    <contour>
      <point x="1129" y="0" type="line"/>
      <point x="971" y="510"/>
      <point x="356" y="317"/>
      <point x="206" y="143" type="curve"/>
      <point x="100" y="303" type="line"/>
      <point x="769" y="1146" type="line"/>
      <point x="883" y="1039" type="line"/>
      <point x="391" y="421" type="line"/>
      <point x="649" y="547"/>
      <point x="1199" y="493"/>
      <point x="1285" y="0" type="curve"/>
    </contour>
  </outline>
</glyph>
<glyph name="AE" format="2">
  <advance width="1152"/>
  <unicode hex="00C6"/>
  <anchor x="514" y="-128" name="L"/>
  <anchor x="514" y="1260" name="U"/>
  <outline>
    <contour>
      <point x="542" y="1152" type="curve" smooth="yes"/>
      <point x="278" y="1152"/>
      <point x="140" y="942"/>
      <point x="140" y="763" type="curve" smooth="yes"/>
      <point x="140" y="547"/>
      <point x="302" y="402"/>
      <point x="466" y="402" type="curve" smooth="yes"/>
      <point x="588" y="402"/>
      <point x="693" y="461"/>
      <point x="762" y="599" type="curve"/>
      <point x="634" y="687" type="line"/>
      <point x="602" y="618"/>
      <point x="548" y="558"/>
      <point x="466" y="558" type="curve" smooth="yes"/>
      <point x="400" y="558"/>
      <point x="298" y="622"/>
      <point x="298" y="763" type="curve" smooth="yes"/>
      <point x="298" y="905"/>
      <point x="414" y="996"/>
      <point x="542" y="996" type="curve" smooth="yes"/>
      <point x="736" y="996"/>
      <point x="876" y="892"/>
      <point x="876" y="596" type="curve" smooth="yes"/>
      <point x="876" y="290"/>
      <point x="696" y="38"/>
      <point x="580" y="-93" type="curve"/>
      <point x="678" y="-216" type="line"/>
      <point x="798" y="-81"/>
      <point x="1032" y="213"/>
      <point x="1032" y="596" type="curve" smooth="yes"/>
      <point x="1032" y="944"/>
      <point x="848" y="1152"/>
    </contour>
  </outline>
</glyph>
<glyph name="Egrave" format="2">
  <advance width="1631"/>
  <unicode hex="00C8"/>
  <guideline x="-1629"/>
  <outline>
    <contour>
      <point x="849" y="936" type="curve"/>
      <point x="729" y="799"/>
      <point x="576" y="610"/>
      <point x="439" y="454" type="curve"/>
      <point x="561" y="413"/>
      <point x="607" y="310"/>
      <point x="607" y="221" type="curve" smooth="yes"/>
      <point x="607" y="104"/>
      <point x="518" y="-20"/>
      <point x="359" y="-20" type="curve" smooth="yes"/>
      <point x="221" y="-20"/>
      <point x="117" y="104"/>
      <point x="121" y="222" type="curve"/>
      <point x="116" y="277"/>
      <point x="147" y="348"/>
      <point x="205" y="418" type="curve"/>
      <point x="388" y="638"/>
      <point x="691" y="991"/>
      <point x="817" y="1142" type="curve"/>
      <point x="988" y="1042" type="line"/>
      <point x="972" y="848"/>
      <point x="1175" y="321"/>
      <point x="1511" y="302" type="curve"/>
      <point x="1511" y="146" type="line"/>
      <point x="1124" y="165"/>
      <point x="872" y="623"/>
    </contour>
    <contour>
      <point x="277" y="222" type="curve" smooth="yes"/>
      <point x="277" y="180"/>
      <point x="306" y="136"/>
      <point x="359" y="136" type="curve" smooth="yes"/>
      <point x="416" y="136"/>
      <point x="441" y="183"/>
      <point x="441" y="221" type="curve" smooth="yes"/>
      <point x="441" y="271"/>
      <point x="404" y="302"/>
      <point x="359" y="302" type="curve" smooth="yes"/>
      <point x="305" y="302"/>
      <point x="277" y="264"/>
    </contour>
  </outline>
</glyph>
<glyph name="Ecircumflex" format="2">
  <advance width="995"/>
  <unicode hex="00CA"/>
  <anchor x="323" y="-44" name="L"/>
  <anchor x="323" y="429" name="U"/>
  <outline>
    <contour>
      <point x="469" y="1152" type="curve" smooth="yes"/>
      <point x="644" y="1152"/>
      <point x="772" y="1016"/>
      <point x="772" y="826" type="curve" smooth="yes"/>
      <point x="772" y="788"/>
      <point x="772" y="786"/>
      <point x="772" y="740" type="curve"/>
      <point x="875" y="740" type="line"/>
      <point x="875" y="584" type="line"/>
      <point x="616" y="584" type="line"/>
      <point x="616" y="816" type="line" smooth="yes"/>
      <point x="616" y="880"/>
      <point x="605" y="996"/>
      <point x="469" y="996" type="curve" smooth="yes"/>
      <point x="333" y="996"/>
      <point x="276" y="901"/>
      <point x="276" y="817" type="curve" smooth="yes"/>
      <point x="276" y="786"/>
      <point x="276" y="356"/>
      <point x="275" y="328" type="curve" smooth="yes"/>
      <point x="271" y="201"/>
      <point x="363" y="136"/>
      <point x="469" y="136" type="curve" smooth="yes"/>
      <point x="562" y="136"/>
      <point x="616" y="192"/>
      <point x="637" y="242" type="curve"/>
      <point x="638" y="242"/>
      <point x="760" y="154"/>
      <point x="763" y="154" type="curve"/>
      <point x="722" y="86"/>
      <point x="631" y="-20"/>
      <point x="469" y="-20" type="curve" smooth="yes"/>
      <point x="277" y="-20"/>
      <point x="120" y="102"/>
      <point x="120" y="324" type="curve" smooth="yes"/>
      <point x="120" y="817" type="line" smooth="yes"/>
      <point x="120" y="956"/>
      <point x="207" y="1152"/>
    </contour>
  </outline>
</glyph>
<glyph name="Edieresis" format="2">
  <advance width="1416"/>
  <unicode hex="00CB"/>
  <anchor x="708" y="-128" name="L"/>
  <anchor x="708" y="1260" name="U"/>
  <outline>
    <contour>
      <point x="708" y="1152" type="curve" smooth="yes"/>
      <point x="1024" y="1152"/>
      <point x="1296" y="886"/>
      <point x="1296" y="566" type="curve" smooth="yes"/>
      <point x="1296" y="378"/>
      <point x="1248" y="154"/>
      <point x="1056" y="-20" type="curve"/>
      <point x="1032" y="16"/>
      <point x="982" y="82"/>
      <point x="964" y="106" type="curve"/>
      <point x="1134" y="262"/>
      <point x="1140" y="536"/>
      <point x="1140" y="560" type="curve" smooth="yes"/>
      <point x="1140" y="796"/>
      <point x="940" y="996"/>
      <point x="708" y="996" type="curve"/>
      <point x="476" y="996"/>
      <point x="276" y="796"/>
      <point x="276" y="560" type="curve" smooth="yes"/>
      <point x="276" y="536"/>
      <point x="282" y="262"/>
      <point x="452" y="106" type="curve"/>
      <point x="434" y="82"/>
      <point x="384" y="16"/>
      <point x="360" y="-20" type="curve"/>
      <point x="168" y="154"/>
      <point x="120" y="378"/>
      <point x="120" y="566" type="curve" smooth="yes"/>
      <point x="120" y="886"/>
      <point x="392" y="1152"/>
    </contour>
    <contour>
      <point x="642" y="560" type="line"/>
      <point x="774" y="560" type="line"/>
      <point x="774" y="-454" type="line" smooth="yes"/>
      <point x="774" y="-648"/>
      <point x="604" y="-780"/>
      <point x="434" y="-780" type="curve" smooth="yes"/>
      <point x="266" y="-780"/>
      <point x="96" y="-643"/>
      <point x="95" y="-466" type="curve"/>
      <point x="93" y="-316"/>
      <point x="194" y="-194"/>
      <point x="330" y="-194" type="curve" smooth="yes"/>
      <point x="377" y="-194"/>
      <point x="425" y="-206"/>
      <point x="459" y="-233" type="curve"/>
      <point x="383" y="-341" type="line"/>
      <point x="369" y="-328"/>
      <point x="346" y="-326"/>
      <point x="330" y="-326" type="curve" smooth="yes"/>
      <point x="272" y="-326"/>
      <point x="227" y="-372"/>
      <point x="227" y="-466" type="curve" smooth="yes"/>
      <point x="227" y="-583"/>
      <point x="342" y="-648"/>
      <point x="434" y="-648" type="curve" smooth="yes"/>
      <point x="507" y="-648"/>
      <point x="642" y="-595"/>
      <point x="642" y="-474" type="curve" smooth="yes"/>
    </contour>
  </outline>
</glyph>
<glyph name="Iacute" format="2">
  <advance width="692"/>
  <unicode hex="00CD"/>
  <outline>
    <contour>
      <point x="276" y="0" type="line"/>
      <point x="276" y="1132" type="line"/>
      <point x="120" y="1132" type="line"/>
      <point x="120" y="0" type="line"/>
    </contour>
    <contour>
      <point x="572" y="0" type="line"/>
      <point x="572" y="1132" type="line"/>
      <point x="416" y="1132" type="line"/>
      <point x="416" y="0" type="line"/>
    </contour>
  </outline>
</glyph>
<glyph name="Icircumflex" format="2">
  <advance width="1158"/>
  <unicode hex="00CE"/>
  <outline>
    <contour>
      <point x="1028" y="1015" type="line"/>
      <point x="414" y="734" type="line"/>
      <point x="1038" y="734" type="line"/>
      <point x="1038" y="614" type="line"/>
      <point x="120" y="614" type="line"/>
      <point x="120" y="734" type="line"/>
      <point x="742" y="1015" type="line"/>
      <point x="140" y="1015" type="line"/>
      <point x="140" y="1135" type="line"/>
      <point x="1028" y="1133" type="line"/>
    </contour>
    <contour>
      <point x="1028" y="401" type="line"/>
      <point x="414" y="120" type="line"/>
      <point x="1038" y="120" type="line"/>
      <point x="1038" y="0" type="line"/>
      <point x="120" y="0" type="line"/>
      <point x="120" y="120" type="line"/>
      <point x="742" y="401" type="line"/>
      <point x="140" y="401" type="line"/>
      <point x="140" y="521" type="line"/>
      <point x="1028" y="519" type="line"/>
    </contour>
  </outline>
</glyph>
<glyph name="Eth" format="2">
  <advance width="2165"/>
  <unicode hex="00D0"/>
  <anchor x="662" y="-128" name="L"/>
  <anchor x="662" y="1260" name="U"/>
  <outline>
    <contour>
      <point x="522" y="1152" type="curve" smooth="yes"/>
      <point x="258" y="1152"/>
      <point x="120" y="942"/>
      <point x="120" y="763" type="curve" smooth="yes"/>
      <point x="120" y="547"/>
      <point x="282" y="402"/>
      <point x="446" y="402" type="curve" smooth="yes"/>
      <point x="568" y="402"/>
      <point x="673" y="461"/>
      <point x="742" y="599" type="curve"/>
      <point x="614" y="687" type="line"/>
      <point x="582" y="618"/>
      <point x="528" y="558"/>
      <point x="446" y="558" type="curve" smooth="yes"/>
      <point x="380" y="558"/>
      <point x="278" y="622"/>
      <point x="278" y="763" type="curve" smooth="yes"/>
      <point x="278" y="905"/>
      <point x="394" y="996"/>
      <point x="522" y="996" type="curve" smooth="yes"/>
      <point x="716" y="996"/>
      <point x="856" y="892"/>
      <point x="856" y="596" type="curve" smooth="yes"/>
      <point x="856" y="290"/>
      <point x="676" y="38"/>
      <point x="560" y="-93" type="curve"/>
      <point x="658" y="-216" type="line"/>
      <point x="778" y="-81"/>
      <point x="1012" y="213"/>
      <point x="1012" y="596" type="curve" smooth="yes"/>
      <point x="1012" y="944"/>
      <point x="828" y="1152"/>
    </contour>
    <contour>
      <point x="1555" y="1152" type="curve" smooth="yes"/>
      <point x="1291" y="1152"/>
      <point x="1153" y="942"/>
      <point x="1153" y="763" type="curve" smooth="yes"/>
      <point x="1153" y="547"/>
      <point x="1315" y="402"/>
      <point x="1479" y="402" type="curve" smooth="yes"/>
      <point x="1601" y="402"/>
      <point x="1706" y="461"/>
      <point x="1775" y="599" type="curve"/>
      <point x="1647" y="687" type="line"/>
      <point x="1615" y="618"/>
      <point x="1561" y="558"/>
      <point x="1479" y="558" type="curve" smooth="yes"/>
      <point x="1413" y="558"/>
      <point x="1311" y="622"/>
      <point x="1311" y="763" type="curve" smooth="yes"/>
      <point x="1311" y="905"/>
      <point x="1427" y="996"/>
      <point x="1555" y="996" type="curve" smooth="yes"/>
      <point x="1749" y="996"/>
      <point x="1889" y="892"/>
      <point x="1889" y="596" type="curve" smooth="yes"/>
      <point x="1889" y="290"/>
      <point x="1709" y="38"/>
      <point x="1593" y="-93" type="curve"/>
      <point x="1691" y="-216" type="line"/>
      <point x="1811" y="-81"/>
      <point x="2045" y="213"/>
      <point x="2045" y="596" type="curve" smooth="yes"/>
      <point x="2045" y="944"/>
      <point x="1861" y="1152"/>
    </contour>
  </outline>
</glyph>
<glyph name="Ntilde" format="2">
  <advance width="1052"/>
  <unicode hex="00D1"/>
  <outline>
    <contour>
      <point x="238" y="665" type="curve" smooth="yes"/>
      <point x="238" y="649"/>
      <point x="249" y="634"/>
      <point x="267" y="634" type="curve" smooth="yes"/>
      <point x="288" y="634"/>
      <point x="297" y="651"/>
      <point x="297" y="665" type="curve" smooth="yes"/>
      <point x="297" y="683"/>
      <point x="283" y="693"/>
      <point x="267" y="693" type="curve" smooth="yes"/>
      <point x="249" y="693"/>
      <point x="238" y="681"/>
    </contour>
    <contour>
      <point x="932" y="574" type="line"/>
      <point x="710" y="585"/>
      <point x="533" y="802"/>
      <point x="492" y="974" type="curve"/>
      <point x="415" y="881"/>
      <point x="386" y="845"/>
      <point x="342" y="796" type="curve"/>
      <point x="397" y="766"/>
      <point x="420" y="711"/>
      <point x="420" y="665" type="curve" smooth="yes"/>
      <point x="420" y="592"/>
      <point x="365" y="516"/>
      <point x="267" y="516" type="curve" smooth="yes"/>
      <point x="183" y="516"/>
      <point x="120" y="591"/>
      <point x="121" y="663" type="curve"/>
      <point x="118" y="697"/>
      <point x="137" y="741"/>
      <point x="171" y="783" type="curve" smooth="yes"/>
      <point x="262" y="894"/>
      <point x="385" y="1032"/>
      <point x="482" y="1152" type="curve"/>
      <point x="599" y="1085" type="line"/>
      <point x="591" y="936"/>
      <point x="753" y="707"/>
      <point x="932" y="696" type="curve"/>
    </contour>
    <contour>
      <point x="238" y="129" type="curve" smooth="yes"/>
      <point x="238" y="113"/>
      <point x="249" y="98"/>
      <point x="267" y="98" type="curve" smooth="yes"/>
      <point x="288" y="98"/>
      <point x="297" y="115"/>
      <point x="297" y="129" type="curve" smooth="yes"/>
      <point x="297" y="147"/>
      <point x="283" y="157"/>
      <point x="267" y="157" type="curve" smooth="yes"/>
      <point x="249" y="157"/>
      <point x="238" y="145"/>
    </contour>
    <contour>
      <point x="932" y="38" type="line"/>
      <point x="710" y="49"/>
      <point x="533" y="266"/>
      <point x="492" y="438" type="curve"/>
      <point x="415" y="345"/>
      <point x="386" y="309"/>
      <point x="342" y="260" type="curve"/>
      <point x="397" y="230"/>
      <point x="420" y="175"/>
      <point x="420" y="129" type="curve" smooth="yes"/>
      <point x="420" y="56"/>
      <point x="365" y="-20"/>
      <point x="267" y="-20" type="curve" smooth="yes"/>
      <point x="183" y="-20"/>
      <point x="120" y="55"/>
      <point x="121" y="127" type="curve"/>
      <point x="118" y="161"/>
      <point x="137" y="205"/>
      <point x="171" y="247" type="curve" smooth="yes"/>
      <point x="262" y="358"/>
      <point x="385" y="496"/>
      <point x="482" y="616" type="curve"/>
      <point x="599" y="549" type="line"/>
      <point x="591" y="400"/>
      <point x="753" y="171"/>
      <point x="932" y="160" type="curve"/>
    </contour>
  </outline>
</glyph>
<glyph name="Ograve" format="2">
  <advance width="841"/>
  <unicode hex="00D2"/>
  <anchor x="411" y="-84" name="L"/>
  <outline>
    <contour>
      <point x="421" y="1152" type="curve" smooth="yes"/>
      <point x="596" y="1152"/>
      <point x="721" y="1010"/>
      <point x="721" y="862" type="curve" smooth="yes"/>
      <point x="721" y="776"/>
      <point x="699" y="673"/>
      <point x="611" y="593" type="curve"/>
      <point x="600" y="609"/>
      <point x="542" y="672"/>
      <point x="533" y="683" type="curve"/>
      <point x="602" y="755"/>
      <point x="601" y="829"/>
      <point x="601" y="860" type="curve" smooth="yes"/>
      <point x="601" y="948"/>
      <point x="528" y="1032"/>
      <point x="421" y="1032" type="curve" smooth="yes"/>
      <point x="313" y="1032"/>
      <point x="240" y="948"/>
      <point x="240" y="860" type="curve" smooth="yes"/>
      <point x="240" y="829"/>
      <point x="241" y="755"/>
      <point x="309" y="683" type="curve"/>
      <point x="301" y="672"/>
      <point x="242" y="609"/>
      <point x="231" y="593" type="curve"/>
      <point x="142" y="673"/>
      <point x="120" y="776"/>
      <point x="120" y="862" type="curve" smooth="yes"/>
      <point x="120" y="1010"/>
      <point x="246" y="1152"/>
    </contour>
    <contour>
      <point x="421" y="539" type="curve" smooth="yes"/>
      <point x="596" y="539"/>
      <point x="721" y="397"/>
      <point x="721" y="249" type="curve" smooth="yes"/>
      <point x="721" y="163"/>
      <point x="699" y="60"/>
      <point x="611" y="-20" type="curve"/>
      <point x="600" y="-4"/>
      <point x="542" y="59"/>
      <point x="533" y="70" type="curve"/>
      <point x="602" y="142"/>
      <point x="601" y="216"/>
      <point x="601" y="247" type="curve" smooth="yes"/>
      <point x="601" y="335"/>
      <point x="528" y="419"/>
      <point x="421" y="419" type="curve" smooth="yes"/>
      <point x="313" y="419"/>
      <point x="240" y="335"/>
      <point x="240" y="247" type="curve" smooth="yes"/>
      <point x="240" y="216"/>
      <point x="241" y="142"/>
      <point x="309" y="70" type="curve"/>
      <point x="301" y="59"/>
      <point x="242" y="-4"/>
      <point x="231" y="-20" type="curve"/>
      <point x="142" y="60"/>
      <point x="120" y="163"/>
      <point x="120" y="249" type="curve" smooth="yes"/>
      <point x="120" y="397"/>
      <point x="246" y="539"/>
    </contour>
  </outline>
</glyph>
<glyph name="Ocircumflex" format="2">
  <advance width="1416"/>
  <unicode hex="00D4"/>
  <anchor x="708" y="-128" name="L"/>
  <anchor x="708" y="1260" name="U"/>
  <outline>
    <contour>
      <point x="708" y="1152" type="curve" smooth="yes"/>
      <point x="1024" y="1152"/>
      <point x="1296" y="886"/>
      <point x="1296" y="566" type="curve" smooth="yes"/>
      <point x="1296" y="378"/>
      <point x="1248" y="154"/>
      <point x="1056" y="-20" type="curve"/>
      <point x="1032" y="16"/>
      <point x="982" y="82"/>
      <point x="964" y="106" type="curve"/>
      <point x="1134" y="262"/>
      <point x="1140" y="536"/>
      <point x="1140" y="560" type="curve" smooth="yes"/>
      <point x="1140" y="796"/>
      <point x="940" y="996"/>
      <point x="708" y="996" type="curve" smooth="yes"/>
      <point x="476" y="996"/>
      <point x="276" y="796"/>
      <point x="276" y="560" type="curve" smooth="yes"/>
      <point x="276" y="536"/>
      <point x="282" y="262"/>
      <point x="452" y="106" type="curve"/>
      <point x="434" y="82"/>
      <point x="384" y="16"/>
      <point x="360" y="-20" type="curve"/>
      <point x="168" y="154"/>
      <point x="120" y="378"/>
      <point x="120" y="566" type="curve" smooth="yes"/>
      <point x="120" y="886"/>
      <point x="392" y="1152"/>
    </contour>
    <contour>
      <point x="708" y="718" type="curve" smooth="yes"/>
      <point x="636" y="718"/>
      <point x="564" y="656"/>
      <point x="564" y="566" type="curve" smooth="yes"/>
      <point x="564" y="476"/>
      <point x="636" y="414"/>
      <point x="708" y="414" type="curve" smooth="yes"/>
      <point x="782" y="414"/>
      <point x="848" y="476"/>
      <point x="848" y="566" type="curve" smooth="yes"/>
      <point x="848" y="656"/>
      <point x="782" y="718"/>
    </contour>
  </outline>
</glyph>
<glyph name="Otilde" format="2">
  <advance width="1147"/>
  <unicode hex="00D5"/>
  <outline>
    <contour>
      <point x="398" y="593" type="curve" smooth="yes"/>
      <point x="243" y="593"/>
      <point x="120" y="719"/>
      <point x="120" y="872" type="curve" smooth="yes"/>
      <point x="120" y="1016"/>
      <point x="243" y="1152"/>
      <point x="398" y="1152" type="curve" smooth="yes"/>
      <point x="425" y="1152"/>
      <point x="452" y="1151"/>
      <point x="495" y="1128" type="curve"/>
      <point x="464" y="1016" type="line"/>
      <point x="444" y="1027"/>
      <point x="419" y="1030"/>
      <point x="397" y="1030" type="curve" smooth="yes"/>
      <point x="329" y="1030"/>
      <point x="240" y="984"/>
      <point x="240" y="872" type="curve" smooth="yes"/>
      <point x="240" y="756"/>
      <point x="329" y="713"/>
      <point x="397" y="713" type="curve" smooth="yes"/>
      <point x="609" y="713"/>
      <point x="868" y="978"/>
      <point x="923" y="1114" type="curve"/>
      <point x="1027" y="1059" type="line"/>
      <point x="878" y="764"/>
      <point x="626" y="593"/>
    </contour>
    <contour>
      <point x="398" y="-20" type="curve" smooth="yes"/>
      <point x="243" y="-20"/>
      <point x="120" y="106"/>
      <point x="120" y="259" type="curve" smooth="yes"/>
      <point x="120" y="403"/>
      <point x="243" y="539"/>
      <point x="398" y="539" type="curve" smooth="yes"/>
      <point x="425" y="539"/>
      <point x="452" y="538"/>
      <point x="495" y="515" type="curve"/>
      <point x="464" y="403" type="line"/>
      <point x="444" y="414"/>
      <point x="419" y="417"/>
      <point x="397" y="417" type="curve" smooth="yes"/>
      <point x="329" y="417"/>
      <point x="240" y="371"/>
      <point x="240" y="259" type="curve" smooth="yes"/>
      <point x="240" y="143"/>
      <point x="329" y="100"/>
      <point x="397" y="100" type="curve" smooth="yes"/>
      <point x="609" y="100"/>
      <point x="868" y="365"/>
      <point x="923" y="501" type="curve"/>
      <point x="1027" y="446" type="line"/>
      <point x="878" y="151"/>
      <point x="626" y="-20"/>
    </contour>
  </outline>
</glyph>
<glyph name="Odieresis" format="2">
  <advance width="1372"/>
  <unicode hex="00D6"/>
  <outline>
    <contour>
      <point x="815" y="113" type="curve" smooth="yes"/>
      <point x="815" y="163"/>
      <point x="790" y="204"/>
      <point x="754" y="226" type="curve"/>
      <point x="754" y="498" type="line"/>
      <point x="1041" y="498" type="line"/>
      <point x="1063" y="459"/>
      <point x="1104" y="434"/>
      <point x="1147" y="434" type="curve" smooth="yes"/>
      <point x="1212" y="434"/>
      <point x="1272" y="491"/>
      <point x="1272" y="567" type="curve" smooth="yes"/>
      <point x="1272" y="643"/>
      <point x="1214" y="699"/>
      <point x="1147" y="699" type="curve" smooth="yes"/>
      <point x="1105" y="699"/>
      <point x="1064" y="673"/>
      <point x="1041" y="634" type="curve"/>
      <point x="754" y="634" type="line"/>
      <point x="754" y="906" type="line"/>
      <point x="789" y="929"/>
      <point x="815" y="970"/>
      <point x="815" y="1020" type="curve" smooth="yes"/>
      <point x="815" y="1096"/>
      <point x="757" y="1152"/>
      <point x="690" y="1152" type="curve" smooth="yes"/>
      <point x="628" y="1152"/>
      <point x="566" y="1096"/>
      <point x="566" y="1020" type="curve" smooth="yes"/>
      <point x="566" y="974"/>
      <point x="587" y="936"/>
      <point x="618" y="912" type="curve"/>
      <point x="618" y="634" type="line"/>
      <point x="332" y="634" type="line"/>
      <point x="310" y="673"/>
      <point x="269" y="699"/>
      <point x="224" y="699" type="curve" smooth="yes"/>
      <point x="162" y="699"/>
      <point x="100" y="643"/>
      <point x="100" y="567" type="curve" smooth="yes"/>
      <point x="100" y="491"/>
      <point x="160" y="434"/>
      <point x="224" y="434" type="curve" smooth="yes"/>
      <point x="267" y="434"/>
      <point x="308" y="459"/>
      <point x="330" y="498" type="curve"/>
      <point x="618" y="498" type="line"/>
      <point x="618" y="219" type="line"/>
      <point x="587" y="196"/>
      <point x="566" y="158"/>
      <point x="566" y="113" type="curve" smooth="yes"/>
      <point x="566" y="37"/>
      <point x="626" y="-20"/>
      <point x="690" y="-20" type="curve" smooth="yes"/>
      <point x="755" y="-20"/>
      <point x="815" y="37"/>
    </contour>
  </outline>
</glyph>
<glyph name="Ugrave" format="2">
  <unicode hex="00D9"/>
  <outline>
    <contour>
      <point x="-667" y="-433" type="curve" smooth="yes"/>
      <point x="-667" y="-550"/>
      <point x="-760" y="-673"/>
      <point x="-909" y="-673" type="curve" smooth="yes"/>
      <point x="-1047" y="-673"/>
      <point x="-1155" y="-549"/>
      <point x="-1151" y="-431" type="curve"/>
      <point x="-1155" y="-313"/>
      <point x="-1047" y="-190"/>
      <point x="-909" y="-190" type="curve" smooth="yes"/>
      <point x="-212" y="-190" type="line"/>
      <point x="-212" y="-310" type="line"/>
      <point x="-705" y="-310" type="line"/>
      <point x="-682" y="-346"/>
      <point x="-667" y="-389"/>
    </contour>
    <contour>
      <point x="-1034" y="-433" type="curve" smooth="yes"/>
      <point x="-1034" y="-502"/>
      <point x="-974" y="-557"/>
      <point x="-909" y="-557" type="curve" smooth="yes"/>
      <point x="-842" y="-557"/>
      <point x="-785" y="-502"/>
      <point x="-785" y="-433" type="curve" smooth="yes"/>
      <point x="-785" y="-383"/>
      <point x="-828" y="-309"/>
      <point x="-909" y="-309" type="curve" smooth="yes"/>
      <point x="-974" y="-309"/>
      <point x="-1034" y="-361"/>
    </contour>
  </outline>
</glyph>
<glyph name="Ucircumflex" format="2">
  <unicode hex="00DB"/>
  <anchor x="392" y="-143" name="L"/>
  <anchor x="392" y="631" name="U"/>
  <outline>
    <contour>
      <point x="-580" y="-190" type="line"/>
      <point x="-712" y="-190" type="line"/>
      <point x="-812" y="-415" type="line"/>
      <point x="-756" y="-404"/>
      <point x="-749" y="-399"/>
      <point x="-682" y="-399" type="curve" smooth="yes"/>
      <point x="-579" y="-399"/>
      <point x="-520" y="-438"/>
      <point x="-520" y="-545" type="curve" smooth="yes"/>
      <point x="-520" y="-643"/>
      <point x="-619" y="-782"/>
      <point x="-742" y="-782" type="curve" smooth="yes"/>
      <point x="-804" y="-782"/>
      <point x="-850" y="-739"/>
      <point x="-850" y="-703" type="curve" smooth="yes"/>
      <point x="-850" y="-643"/>
      <point x="-760" y="-610"/>
      <point x="-662" y="-600" type="curve"/>
      <point x="-666" y="-509" type="line"/>
      <point x="-881" y="-510"/>
      <point x="-968" y="-604"/>
      <point x="-970" y="-703" type="curve" smooth="yes"/>
      <point x="-972" y="-829"/>
      <point x="-860" y="-902"/>
      <point x="-742" y="-902" type="curve" smooth="yes"/>
      <point x="-573" y="-902"/>
      <point x="-400" y="-718"/>
      <point x="-400" y="-545" type="curve" smooth="yes"/>
      <point x="-400" y="-315"/>
      <point x="-576" y="-288"/>
      <point x="-621" y="-283" type="curve"/>
    </contour>
  </outline>
</glyph>
<glyph name="Thorn" format="2">
  <unicode hex="00DE"/>
  <outline>
    <contour>
      <point x="-906" y="-1237" type="curve" smooth="yes"/>
      <point x="-906" y="-1365"/>
      <point x="-808" y="-1471"/>
      <point x="-682" y="-1471" type="curve" smooth="yes"/>
      <point x="-556" y="-1471"/>
      <point x="-458" y="-1365"/>
      <point x="-458" y="-1237" type="curve" smooth="yes"/>
      <point x="-458" y="-1109"/>
      <point x="-553" y="-1002"/>
      <point x="-682" y="-1002" type="curve"/>
      <point x="-804" y="-1002"/>
      <point x="-906" y="-1109"/>
    </contour>
    <contour>
      <point x="-575" y="-1237" type="curve" smooth="yes"/>
      <point x="-575" y="-1301"/>
      <point x="-626" y="-1350"/>
      <point x="-682" y="-1350" type="curve" smooth="yes"/>
      <point x="-736" y="-1350"/>
      <point x="-787" y="-1301"/>
      <point x="-787" y="-1237" type="curve" smooth="yes"/>
      <point x="-787" y="-1172"/>
      <point x="-734" y="-1124"/>
      <point x="-682" y="-1124" type="curve" smooth="yes"/>
      <point x="-625" y="-1124"/>
      <point x="-575" y="-1172"/>
    </contour>
  </outline>
</glyph>
<glyph name="agrave" format="2">
  <unicode hex="00E0"/>
  <outline>
    <contour>
      <point x="-906" y="-425" type="curve" smooth="yes"/>
      <point x="-906" y="-553"/>
      <point x="-808" y="-659"/>
      <point x="-682" y="-659" type="curve" smooth="yes"/>
      <point x="-556" y="-659"/>
      <point x="-458" y="-553"/>
      <point x="-458" y="-425" type="curve" smooth="yes"/>
      <point x="-458" y="-297"/>
      <point x="-553" y="-190"/>
      <point x="-682" y="-190" type="curve"/>
      <point x="-804" y="-190"/>
      <point x="-906" y="-297"/>
    </contour>
    <contour>
      <point x="-575" y="-425" type="curve" smooth="yes"/>
      <point x="-575" y="-489"/>
      <point x="-626" y="-538"/>
      <point x="-682" y="-538" type="curve" smooth="yes"/>
      <point x="-736" y="-538"/>
      <point x="-787" y="-489"/>
      <point x="-787" y="-425" type="curve" smooth="yes"/>
      <point x="-787" y="-360"/>
      <point x="-734" y="-312"/>
      <point x="-682" y="-312" type="curve" smooth="yes"/>
      <point x="-625" y="-312"/>
      <point x="-575" y="-360"/>
    </contour>
  </outline>
</glyph>
<glyph name="acircumflex" format="2">
  <unicode hex="00E2"/>
  <anchor x="380" y="37" name="L"/>
  <anchor x="380" y="811" name="U"/>
  <outline>
    <contour>
      <point x="-682" y="1311" type="curve" smooth="yes"/>
      <point x="-828" y="1311"/>
      <point x="-994" y="1433"/>
      <point x="-994" y="1637" type="curve" smooth="yes"/>
      <point x="-994" y="1830"/>
      <point x="-841" y="1964"/>
      <point x="-682" y="1964" type="curve"/>
      <point x="-551" y="1964"/>
      <point x="-420" y="1899"/>
      <point x="-369" y="1777" type="curve"/>
      <point x="-475" y="1719" type="line"/>
      <point x="-527" y="1816"/>
      <point x="-595" y="1844"/>
      <point x="-682" y="1844" type="curve" smooth="yes"/>
      <point x="-795" y="1844"/>
      <point x="-874" y="1745"/>
      <point x="-874" y="1637" type="curve"/>
      <point x="-874" y="1530"/>
      <point x="-805" y="1431"/>
      <point x="-682" y="1431" type="curve"/>
      <point x="-595" y="1431"/>
      <point x="-527" y="1459"/>
      <point x="-475" y="1556" type="curve"/>
      <point x="-369" y="1498" type="line"/>
      <point x="-420" y="1377"/>
      <point x="-551" y="1311"/>
    </contour>
  </outline>
</glyph>
<glyph name="atilde" format="2">
  <unicode hex="00E3"/>
  <outline>
    <contour>
      <point x="-732" y="-902" type="line"/>
      <point x="-732" y="-190" type="line"/>
      <point x="-852" y="-190" type="line"/>
      <point x="-852" y="-902" type="line"/>
    </contour>
    <contour>
      <point x="-512" y="-902" type="line"/>
      <point x="-512" y="-190" type="line"/>
      <point x="-632" y="-190" type="line"/>
      <point x="-632" y="-902" type="line"/>
    </contour>
  </outline>
</glyph>
<glyph name="aring" format="2">
  <unicode hex="00E5"/>
  <outline>
    <contour>
      <point x="-425" y="-527" type="line"/>
      <point x="-563" y="-520"/>
      <point x="-674" y="-398"/>
      <point x="-707" y="-293" type="curve"/>
      <point x="-754" y="-350"/>
      <point x="-761" y="-360"/>
      <point x="-777" y="-379" type="curve"/>
      <point x="-749" y="-400"/>
      <point x="-736" y="-433"/>
      <point x="-736" y="-460" type="curve" smooth="yes"/>
      <point x="-736" y="-510"/>
      <point x="-774" y="-561"/>
      <point x="-839" y="-561" type="curve" smooth="yes"/>
      <point x="-895" y="-561"/>
      <point x="-938" y="-510"/>
      <point x="-938" y="-463" type="curve"/>
      <point x="-940" y="-439"/>
      <point x="-927" y="-410"/>
      <point x="-905" y="-382" type="curve" smooth="yes"/>
      <point x="-847" y="-310"/>
      <point x="-771" y="-223"/>
      <point x="-711" y="-151" type="curve"/>
      <point x="-627" y="-199" type="line"/>
      <point x="-632" y="-288"/>
      <point x="-534" y="-426"/>
      <point x="-425" y="-433" type="curve"/>
    </contour>
    <contour>
      <point x="-425" y="-868" type="line"/>
      <point x="-561" y="-860"/>
      <point x="-672" y="-740"/>
      <point x="-706" y="-635" type="curve"/>
      <point x="-742" y="-677"/>
      <point x="-754" y="-694"/>
      <point x="-777" y="-720" type="curve"/>
      <point x="-749" y="-741"/>
      <point x="-736" y="-775"/>
      <point x="-736" y="-802" type="curve" smooth="yes"/>
      <point x="-736" y="-851"/>
      <point x="-774" y="-902"/>
      <point x="-839" y="-902" type="curve" smooth="yes"/>
      <point x="-895" y="-902"/>
      <point x="-938" y="-852"/>
      <point x="-938" y="-804" type="curve"/>
      <point x="-940" y="-781"/>
      <point x="-927" y="-752"/>
      <point x="-905" y="-724" type="curve"/>
      <point x="-786" y="-584"/>
      <point x="-743" y="-533"/>
      <point x="-711" y="-493" type="curve"/>
      <point x="-627" y="-540" type="line"/>
      <point x="-632" y="-629"/>
      <point x="-534" y="-767"/>
      <point x="-425" y="-773" type="curve"/>
    </contour>
    <contour>
      <point x="-857" y="-463" type="curve" smooth="yes"/>
      <point x="-857" y="-473"/>
      <point x="-850" y="-483"/>
      <point x="-839" y="-483" type="curve" smooth="yes"/>
      <point x="-826" y="-483"/>
      <point x="-820" y="-472"/>
      <point x="-820" y="-463" type="curve" smooth="yes"/>
      <point x="-820" y="-452"/>
      <point x="-829" y="-446"/>
      <point x="-839" y="-446" type="curve" smooth="yes"/>
      <point x="-850" y="-446"/>
      <point x="-857" y="-453"/>
    </contour>
    <contour>
      <point x="-857" y="-804" type="curve" smooth="yes"/>
      <point x="-857" y="-814"/>
      <point x="-850" y="-824"/>
      <point x="-839" y="-824" type="curve" smooth="yes"/>
      <point x="-826" y="-824"/>
      <point x="-820" y="-813"/>
      <point x="-820" y="-804" type="curve" smooth="yes"/>
      <point x="-820" y="-793"/>
      <point x="-829" y="-787"/>
      <point x="-839" y="-787" type="curve" smooth="yes"/>
      <point x="-850" y="-787"/>
      <point x="-857" y="-794"/>
    </contour>
  </outline>
</glyph>
<glyph name="igrave" format="2">
  <unicode hex="00EC"/>
  <outline>
    <contour>
      <point x="-742" y="-170" type="curve"/>
      <point x="-742" y="-269"/>
      <point x="-742" y="-579"/>
      <point x="-742" y="-630" type="curve" smooth="yes"/>
      <point x="-742" y="-797"/>
      <point x="-630" y="-902"/>
      <point x="-473" y="-902" type="curve" smooth="yes"/>
      <point x="-422" y="-902"/>
      <point x="-339" y="-889"/>
      <point x="-278" y="-834" type="curve"/>
      <point x="-348" y="-738" type="line"/>
      <point x="-364" y="-749"/>
      <point x="-412" y="-782"/>
      <point x="-473" y="-782" type="curve" smooth="yes"/>
      <point x="-536" y="-782"/>
      <point x="-622" y="-747"/>
      <point x="-622" y="-607" type="curve" smooth="yes"/>
      <point x="-622" y="-568"/>
      <point x="-622" y="-360"/>
      <point x="-622" y="-170" type="curve"/>
      <point x="-638" y="-170"/>
      <point x="-718" y="-170"/>
    </contour>
  </outline>
</glyph>
<glyph name="ntilde" format="2">
  <advance width="1482"/>
  <unicode hex="00F1"/>
  <outline>
    <contour>
      <point x="231" y="0" type="line"/>
      <point x="1029" y="1132" type="line"/>
      <point x="838" y="1132" type="line"/>
      <point x="40" y="0" type="line"/>
    </contour>
    <contour>
      <point x="644" y="0" type="line"/>
      <point x="1442" y="1132" type="line"/>
      <point x="1251" y="1132" type="line"/>
      <point x="453" y="0" type="line"/>
    </contour>
  </outline>
</glyph>
<glyph name="ograve" format="2">
  <advance width="948"/>
  <unicode hex="00F2"/>
  <outline>
    <contour>
      <point x="828" y="446" type="line"/>
      <point x="520" y="366"/>
      <point x="370" y="130"/>
      <point x="370" y="0" type="curve"/>
      <point x="230" y="0" type="line"/>
      <point x="120" y="292" type="line"/>
      <point x="242" y="354" type="line"/>
      <point x="300" y="204" type="line"/>
      <point x="330" y="328"/>
      <point x="570" y="522"/>
      <point x="774" y="572" type="curve"/>
    </contour>
    <contour>
      <point x="828" y="1026" type="line"/>
      <point x="520" y="946"/>
      <point x="370" y="710"/>
      <point x="370" y="580" type="curve"/>
      <point x="230" y="580" type="line"/>
      <point x="120" y="872" type="line"/>
      <point x="242" y="934" type="line"/>
      <point x="300" y="784" type="line"/>
      <point x="330" y="908"/>
      <point x="570" y="1102"/>
      <point x="774" y="1152" type="curve"/>
    </contour>
  </outline>
</glyph>
<glyph name="Egrave_alt" format="2">
  <advance width="1785"/>
  <guideline x="-1593"/>
  <outline>
    <contour>
      <point x="863" y="949" type="curve"/>
      <point x="863" y="949"/>
      <point x="276" y="432"/>
      <point x="276" y="222" type="curve" smooth="yes"/>
      <point x="276" y="180"/>
      <point x="310" y="136"/>
      <point x="363" y="136" type="curve" smooth="yes"/>
      <point x="420" y="136"/>
      <point x="447" y="183"/>
      <point x="447" y="221" type="curve" smooth="yes"/>
      <point x="447" y="240"/>
      <point x="442" y="269"/>
      <point x="427" y="289" type="curve"/>
      <point x="428" y="289"/>
      <point x="552" y="382"/>
      <point x="552" y="382" type="curve"/>
      <point x="599" y="307"/>
      <point x="603" y="274"/>
      <point x="603" y="221" type="curve" smooth="yes"/>
      <point x="603" y="128"/>
      <point x="515" y="-20"/>
      <point x="363" y="-20" type="curve" smooth="yes"/>
      <point x="197" y="-20"/>
      <point x="120" y="129"/>
      <point x="120" y="222" type="curve" smooth="yes"/>
      <point x="120" y="498"/>
      <point x="638" y="929"/>
      <point x="842" y="1142" type="curve"/>
      <point x="1013" y="1042" type="line"/>
      <point x="997" y="758"/>
      <point x="1329" y="321"/>
      <point x="1665" y="302" type="curve"/>
      <point x="1665" y="146" type="line"/>
      <point x="1258" y="165"/>
      <point x="886" y="636"/>
    </contour>
  </outline>
</glyph>
<glyph name="Uacute_alt" format="2">
  <outline>
    <contour>
      <point x="-563" y="1261" type="curve"/>
      <point x="-423" y="1261"/>
      <point x="-278" y="1343"/>
      <point x="-278" y="1514" type="curve" smooth="yes"/>
      <point x="-278" y="1645"/>
      <point x="-366" y="1768"/>
      <point x="-507" y="1768" type="curve" smooth="yes"/>
      <point x="-605" y="1768"/>
      <point x="-710" y="1692"/>
      <point x="-710" y="1582" type="curve" smooth="yes"/>
      <point x="-710" y="1541"/>
      <point x="-701" y="1500"/>
      <point x="-680" y="1465" type="curve"/>
      <point x="-575" y="1524" type="line"/>
      <point x="-588" y="1548"/>
      <point x="-590" y="1563"/>
      <point x="-590" y="1582" type="curve" smooth="yes"/>
      <point x="-590" y="1616"/>
      <point x="-556" y="1648"/>
      <point x="-507" y="1648" type="curve" smooth="yes"/>
      <point x="-451" y="1648"/>
      <point x="-398" y="1596"/>
      <point x="-398" y="1514" type="curve" smooth="yes"/>
      <point x="-398" y="1429"/>
      <point x="-464" y="1381"/>
      <point x="-563" y="1381" type="curve" smooth="yes"/>
      <point x="-695" y="1381"/>
      <point x="-908" y="1441"/>
      <point x="-979" y="1636" type="curve"/>
      <point x="-1087" y="1575" type="line"/>
      <point x="-971" y="1338"/>
      <point x="-762" y="1268"/>
    </contour>
  </outline>
</glyph>
<glyph name="Ugrave_alt" format="2">
  <outline>
    <contour>
      <point x="-160" y="-266" type="line"/>
      <point x="-160" y="-140" type="line"/>
      <point x="-862" y="-140" type="line"/>
      <point x="-1065" y="-140"/>
      <point x="-1204" y="-318"/>
      <point x="-1204" y="-496" type="curve"/>
      <point x="-1204" y="-672"/>
      <point x="-1060" y="-851"/>
      <point x="-864" y="-852" type="curve"/>
      <point x="-707" y="-854"/>
      <point x="-589" y="-748"/>
      <point x="-589" y="-605" type="curve" smooth="yes"/>
      <point x="-589" y="-556"/>
      <point x="-601" y="-505"/>
      <point x="-630" y="-470" type="curve"/>
      <point x="-731" y="-550" type="line"/>
      <point x="-717" y="-564"/>
      <point x="-715" y="-588"/>
      <point x="-715" y="-605" type="curve" smooth="yes"/>
      <point x="-715" y="-666"/>
      <point x="-755" y="-731"/>
      <point x="-864" y="-731" type="curve" smooth="yes"/>
      <point x="-1015" y="-731"/>
      <point x="-1083" y="-603"/>
      <point x="-1083" y="-496" type="curve" smooth="yes"/>
      <point x="-1083" y="-369"/>
      <point x="-1000" y="-258"/>
      <point x="-863" y="-259" type="curve" smooth="yes"/>
    </contour>
  </outline>
</glyph>
<glyph name="ae_alt" format="2">
  <outline>
    <contour>
      <point x="-431" y="-611" type="line"/>
      <point x="-431" y="-513" type="line"/>
      <point x="-832" y="-513" type="line" smooth="yes"/>
      <point x="-932" y="-513"/>
      <point x="-1002" y="-596"/>
      <point x="-1002" y="-684" type="curve" smooth="yes"/>
      <point x="-1002" y="-771"/>
      <point x="-930" y="-853"/>
      <point x="-839" y="-853" type="curve"/>
      <point x="-760" y="-854"/>
      <point x="-696" y="-802"/>
      <point x="-696" y="-730" type="curve" smooth="yes"/>
      <point x="-696" y="-715"/>
      <point x="-698" y="-692"/>
      <point x="-709" y="-667" type="curve"/>
      <point x="-797" y="-711" type="line"/>
      <point x="-794" y="-719"/>
      <point x="-794" y="-723"/>
      <point x="-794" y="-730" type="curve" smooth="yes"/>
      <point x="-794" y="-751"/>
      <point x="-822" y="-756"/>
      <point x="-839" y="-756" type="curve" smooth="yes"/>
      <point x="-872" y="-756"/>
      <point x="-904" y="-726"/>
      <point x="-904" y="-684" type="curve" smooth="yes"/>
      <point x="-904" y="-648"/>
      <point x="-874" y="-611"/>
      <point x="-846" y="-611" type="curve" smooth="yes"/>
    </contour>
    <contour>
      <point x="-431" y="-238" type="line"/>
      <point x="-431" y="-140" type="line"/>
      <point x="-832" y="-140" type="line" smooth="yes"/>
      <point x="-932" y="-140"/>
      <point x="-1002" y="-223"/>
      <point x="-1002" y="-311" type="curve" smooth="yes"/>
      <point x="-1002" y="-398"/>
      <point x="-930" y="-480"/>
      <point x="-839" y="-480" type="curve"/>
      <point x="-760" y="-481"/>
      <point x="-696" y="-429"/>
      <point x="-696" y="-357" type="curve" smooth="yes"/>
      <point x="-696" y="-342"/>
      <point x="-698" y="-319"/>
      <point x="-709" y="-294" type="curve"/>
      <point x="-797" y="-338" type="line"/>
      <point x="-794" y="-346"/>
      <point x="-794" y="-350"/>
      <point x="-794" y="-357" type="curve" smooth="yes"/>
      <point x="-794" y="-378"/>
      <point x="-822" y="-383"/>
      <point x="-839" y="-383" type="curve" smooth="yes"/>
      <point x="-872" y="-383"/>
      <point x="-904" y="-353"/>
      <point x="-904" y="-311" type="curve" smooth="yes"/>
      <point x="-904" y="-275"/>
      <point x="-874" y="-238"/>
      <point x="-846" y="-238" type="curve" smooth="yes"/>
    </contour>
  </outline>
</glyph>
